<svg width="400" height="400" viewBox="0 0 400 400" fill="none" xmlns="http://www.w3.org/2000/svg">
<path d="M400 305.92H0V306.12H400V305.92Z" fill="#EBEBEB"/>
<path d="M359.92 318.791H333.424V318.991H359.92V318.791Z" fill="#EBEBEB"/>
<path d="M264.975 320.967H258.023V321.167H264.975V320.967Z" fill="#EBEBEB"/>
<path d="M332.623 311.367H317.271V311.567H332.623V311.367Z" fill="#EBEBEB"/>
<path d="M76.5208 312.711H41.9688V312.911H76.5208V312.711Z" fill="#EBEBEB"/>
<path d="M88.7124 312.711H83.6484V312.911H88.7124V312.711Z" fill="#EBEBEB"/>
<path d="M180.12 316.088H105.176V316.288H180.12V316.088Z" fill="#EBEBEB"/>
<path d="M189.6 270.24H35.1284C33.9182 270.238 32.7584 269.756 31.9035 268.899C31.0485 268.043 30.5684 266.882 30.5684 265.672V48.528C30.5789 47.3248 31.0637 46.1744 31.9175 45.3266C32.7713 44.4788 33.9251 44.0021 35.1284 44H189.6C190.812 44 191.974 44.4813 192.83 45.3379C193.687 46.1946 194.168 47.3565 194.168 48.568V265.672C194.168 266.884 193.687 268.045 192.83 268.902C191.974 269.759 190.812 270.24 189.6 270.24ZM35.1284 44.16C33.9713 44.1621 32.8623 44.6233 32.0449 45.4422C31.2275 46.2611 30.7684 47.3709 30.7684 48.528V265.672C30.7684 266.829 31.2275 267.939 32.0449 268.758C32.8623 269.577 33.9713 270.038 35.1284 270.04H189.6C190.758 270.038 191.868 269.577 192.687 268.758C193.505 267.94 193.966 266.83 193.968 265.672V48.528C193.966 47.3702 193.505 46.2604 192.687 45.4417C191.868 44.623 190.758 44.1621 189.6 44.16H35.1284Z" fill="#EBEBEB"/>
<path d="M362.648 270.24H208.168C206.957 270.238 205.796 269.756 204.94 268.9C204.084 268.044 203.602 266.883 203.6 265.672V48.528C203.612 47.3241 204.099 46.1737 204.954 45.3261C205.809 44.4785 206.964 44.002 208.168 44H362.648C363.849 44.0042 365.001 44.4818 365.853 45.3294C366.705 46.177 367.189 47.3262 367.2 48.528V265.672C367.2 266.881 366.721 268.04 365.867 268.896C365.014 269.753 363.856 270.236 362.648 270.24ZM208.168 44.16C207.01 44.1621 205.9 44.623 205.081 45.4417C204.263 46.2604 203.802 47.3702 203.8 48.528V265.672C203.802 266.83 204.263 267.94 205.081 268.758C205.9 269.577 207.01 270.038 208.168 270.04H362.648C363.805 270.038 364.915 269.577 365.734 268.758C366.553 267.94 367.013 266.83 367.016 265.672V48.528C367.013 47.3702 366.553 46.2604 365.734 45.4417C364.915 44.623 363.805 44.1621 362.648 44.16H208.168Z" fill="#EBEBEB"/>
<path d="M222.184 128.551L221.824 118.039L228.28 115.935C228.55 112.372 229.126 108.839 230 105.375L224.528 101.375L228.24 91.495L235.008 92.047C236.611 88.8653 238.485 85.8274 240.608 82.967L237.104 77.111L244.304 69.423L250.4 72.487C253.119 70.1709 256.019 68.0762 259.072 66.223L258.096 59.511L267.696 55.151L272.096 60.303C275.492 59.2209 278.97 58.4182 282.496 57.903L284.096 51.327L294.64 50.959L296.72 57.415C300.278 57.7026 303.807 58.2778 307.272 59.135L311.336 53.695L321.216 57.383L320.664 64.151C323.843 65.7811 326.88 67.673 329.744 69.807L335.568 66.303L343.288 73.503L340.192 79.575C342.516 82.2825 344.603 85.1837 346.432 88.247L353.144 87.239L357.6 96.799L352.416 101.199C353.511 104.591 354.314 108.07 354.816 111.599L361.424 113.255L361.784 123.767L355.304 125.879C355.037 129.442 354.461 132.975 353.584 136.439L359.056 140.439L355.336 150.311L348.576 149.767C346.962 152.951 345.075 155.989 342.936 158.847L346.448 164.695L339.248 172.391L333.2 169.287C330.488 171.614 327.587 173.712 324.528 175.559L325.536 182.271L315.936 186.623L311.512 181.471C308.119 182.57 304.64 183.386 301.112 183.911L299.512 190.495L288.968 190.855L286.888 184.399C283.327 184.12 279.794 183.545 276.328 182.679L272.328 188.119L262.4 184.463L262.92 177.703C259.743 176.067 256.706 174.173 253.84 172.039L248 175.543L240.28 168.343L243.376 162.263C241.046 159.56 238.953 156.661 237.12 153.599L230.4 154.623L226.016 145.023L231.2 140.623C230.09 137.233 229.273 133.753 228.76 130.223L222.184 128.551ZM293.216 162.607C301.466 162.328 309.448 159.609 316.152 154.793C322.856 149.977 327.982 143.281 330.879 135.551C333.777 127.822 334.317 119.407 332.432 111.37C330.546 103.334 326.319 96.0374 320.286 90.4037C314.252 84.77 306.684 81.0524 298.537 79.7211C290.39 78.3897 282.032 79.5046 274.519 82.9245C267.006 86.3445 260.676 91.9159 256.33 98.9339C251.985 105.952 249.818 114.101 250.104 122.351C250.484 133.406 255.239 143.857 263.324 151.407C271.409 158.956 282.161 162.985 293.216 162.607Z" fill="#EBEBEB"/>
<path d="M95.8162 253.144L95.6562 248.408L98.5682 247.456C98.7 245.85 98.9676 244.257 99.3682 242.696L96.9042 240.88L98.5763 236.424L101.624 236.672C102.353 235.236 103.204 233.866 104.168 232.576L102.568 229.936L105.824 226.472L108.544 227.872C109.771 226.825 111.079 225.878 112.456 225.04L112.016 222.016L116.344 220.048L118.32 222.4C119.853 221.906 121.424 221.537 123.016 221.296L123.752 218.328L128.504 218.168L129.44 221.08C131.046 221.214 132.639 221.481 134.2 221.88L136.032 219.424L140.488 221.088L140.24 224.136C141.671 224.876 143.041 225.73 144.336 226.688L146.96 225.088L150.44 228.288L149.04 231.032C150.093 232.25 151.035 233.559 151.856 234.944L154.888 234.488L156.864 238.816L154.528 240.8C155.025 242.332 155.392 243.903 155.624 245.496L158.608 246.24L158.768 250.984L155.848 251.936C155.718 253.543 155.45 255.135 155.048 256.696L157.512 258.512L155.84 262.968L152.784 262.72C152.055 264.154 151.207 265.524 150.248 266.816L151.848 269.448L148.6 272.92L145.872 271.52C144.65 272.572 143.342 273.52 141.96 274.352L142.416 277.376L138.088 279.336L136.096 277.016C134.563 277.509 132.993 277.878 131.4 278.12L130.664 281.088L125.912 281.248L124.968 278.336C123.349 278.204 121.743 277.936 120.168 277.536L118.4 280L113.936 278.4L114.176 275.352C112.745 274.612 111.375 273.758 110.08 272.8L107.456 274.4L103.976 271.2L105.368 268.456C104.318 267.236 103.376 265.927 102.552 264.544L99.5283 265L97.5523 260.672L99.8883 258.688C99.3871 257.157 99.0178 255.586 98.7843 253.992L95.8162 253.144ZM127.816 268.504C131.536 268.378 135.136 267.152 138.159 264.98C141.182 262.809 143.493 259.789 144.799 256.304C146.106 252.819 146.35 249.024 145.499 245.4C144.649 241.777 142.743 238.486 140.022 235.946C137.302 233.406 133.889 231.729 130.215 231.129C126.542 230.529 122.773 231.031 119.385 232.574C115.997 234.116 113.143 236.628 111.184 239.793C109.224 242.957 108.247 246.632 108.376 250.352C108.462 252.823 109.034 255.252 110.059 257.502C111.084 259.752 112.542 261.777 114.351 263.463C116.159 265.149 118.282 266.462 120.598 267.327C122.914 268.192 125.378 268.592 127.848 268.504H127.816Z" fill="#F5F5F5"/>
<path d="M94.152 76.7993L91.504 74.3993L92.56 72.3113C91.7539 71.3619 91.0313 70.3448 90.4 69.2713L88.08 69.6233L86.584 66.3113L88.36 64.7913C87.991 63.6218 87.7234 62.4227 87.56 61.2073L85.28 60.6313L85.168 56.9993L87.392 56.2793C87.4896 55.0518 87.6876 53.8344 87.984 52.6393L86.104 51.2393L87.384 47.8393L89.712 48.0233C90.2734 46.9267 90.9236 45.8779 91.656 44.8873L90.4 42.8873L92.88 40.2233L94.968 41.2953C95.9049 40.4951 96.9056 39.7727 97.96 39.1353L97.64 36.7993L100.944 35.2873L102.464 37.0713C103.637 36.7059 104.839 36.4384 106.056 36.2713L106.624 33.9993L110.256 33.8633L110.984 36.1033C112.21 36.1929 113.425 36.391 114.616 36.6953L116 34.8073L119.408 36.0713L119.2 38.3993C120.322 38.9545 121.393 39.6077 122.4 40.3513L124.416 39.1513L127.032 41.5993L125.96 43.6953C126.767 44.6266 127.49 45.6279 128.12 46.6873L130.4 46.3993L131.904 49.7193L130.152 51.1993C130.534 52.3703 130.816 53.5721 130.992 54.7913L133.28 55.3593L133.392 58.9913L131.16 59.7113C131.068 60.9415 130.873 62.1619 130.576 63.3593L132.464 64.7433L131.2 68.1433L128.848 67.9993C128.286 69.0933 127.636 70.1394 126.904 71.1273L128.112 73.1353L125.6 75.7593L123.52 74.6953C122.583 75.4929 121.582 76.2126 120.528 76.8473L120.872 79.1593L117.6 80.6713L116.08 78.8953C114.906 79.2568 113.705 79.5243 112.488 79.6953L111.92 81.9673L108.288 82.0953L107.56 79.8633C106.335 79.7702 105.119 79.5721 103.928 79.2713L102.536 81.1513L99.128 79.8793L99.312 77.5433C98.2153 76.9866 97.1687 76.3362 96.184 75.5993L94.152 76.7993ZM113.048 61.4953C113.746 60.7471 114.207 59.8087 114.372 58.7986C114.537 57.7886 114.399 56.7522 113.976 55.8206C113.552 54.889 112.862 54.1039 111.992 53.5645C111.122 53.0252 110.112 52.7558 109.089 52.7905C108.066 52.8251 107.076 53.1623 106.245 53.7592C105.414 54.3562 104.778 55.1862 104.418 56.1444C104.059 57.1026 103.991 58.1459 104.224 59.1424C104.457 60.139 104.981 61.0441 105.728 61.7433C106.222 62.211 106.804 62.5765 107.44 62.8189C108.075 63.0612 108.753 63.1756 109.433 63.1556C110.113 63.1355 110.782 62.9813 111.403 62.7019C112.023 62.4225 112.582 62.0233 113.048 61.5273V61.4953Z" fill="#EBEBEB"/>
<path d="M167.504 248.799L173.552 244.623C174.134 242.448 174.938 240.338 175.952 238.327L174.4 232.239L183.2 222.839L189.376 223.975C191.31 222.817 193.358 221.86 195.488 221.119L199.248 214.799L212.096 214.359L216.272 220.407C218.448 220.988 220.558 221.792 222.568 222.807L228.648 221.263L238.048 230.063L236.92 236.223C238.085 238.163 239.042 240.219 239.776 242.359L246.104 246.111L246.544 258.967L240.488 263.143C239.909 265.333 239.105 267.456 238.088 269.479L239.632 275.543L230.832 284.943L224.688 283.815C222.733 284.975 220.667 285.934 218.52 286.679L214.768 292.991L201.92 293.431L197.744 287.391C195.552 286.806 193.424 286.002 191.392 284.991L185.344 286.527L175.944 277.727L177.072 271.559C175.907 269.617 174.95 267.558 174.216 265.415L167.888 261.663L167.504 248.799ZM207.552 268.335C210.41 268.237 213.175 267.293 215.496 265.623C217.818 263.953 219.592 261.633 220.594 258.954C221.596 256.276 221.782 253.36 221.127 250.577C220.471 247.793 219.005 245.266 216.914 243.316C214.823 241.365 212.2 240.079 209.377 239.62C206.554 239.16 203.659 239.548 201.057 240.735C198.455 241.921 196.263 243.853 194.759 246.285C193.255 248.718 192.507 251.541 192.608 254.399C192.741 258.231 194.39 261.852 197.192 264.468C199.995 267.084 203.721 268.481 207.552 268.351V268.335Z" fill="#EBEBEB"/>
<path d="M59.2796 96.7987C59.133 96.7992 58.9885 96.7638 58.8587 96.6954C58.729 96.6271 58.6181 96.5279 58.5356 96.4067L56.3036 93.2067C55.2049 92.8846 54.1346 92.4725 53.1036 91.9747L49.9036 92.7747C49.7556 92.815 49.5997 92.8163 49.4511 92.7784C49.3025 92.7406 49.1662 92.6649 49.0556 92.5587L43.6156 87.4787C43.5059 87.3793 43.4229 87.254 43.374 87.1143C43.3251 86.9745 43.3119 86.8248 43.3356 86.6787L43.9356 83.4787C43.3618 82.4862 42.8773 81.4448 42.4876 80.3667L39.1036 78.3507C38.9734 78.2732 38.8644 78.1647 38.7863 78.0349C38.7081 77.9051 38.6632 77.758 38.6556 77.6067L38.3996 70.0307C38.3918 69.8751 38.4237 69.72 38.4923 69.5801C38.5609 69.4402 38.6638 69.3199 38.7916 69.2307L41.9916 66.9987C42.3055 65.8972 42.7178 64.8263 43.2236 63.7987L42.4236 60.5987C42.3878 60.4505 42.3887 60.2957 42.4264 60.1479C42.464 60.0001 42.5372 59.8638 42.6396 59.7507L47.7276 54.3107C47.8287 54.2036 47.9544 54.1229 48.0938 54.0755C48.2333 54.0281 48.3822 54.0155 48.5276 54.0387L51.7756 54.6307C52.7674 54.0611 53.8058 53.5767 54.8796 53.1827L56.8876 49.7987C56.9657 49.6679 57.0756 49.5591 57.2071 49.4821C57.3385 49.4052 57.4873 49.3628 57.6396 49.3587L65.0796 49.1027C65.2352 49.0949 65.3903 49.1268 65.5302 49.1954C65.6701 49.264 65.7903 49.367 65.8796 49.4947L68.1116 52.6947C69.211 53.0146 70.2815 53.4267 71.3116 53.9267L74.5116 53.1267C74.6525 53.0976 74.7983 53.102 74.9373 53.1395C75.0762 53.177 75.2044 53.2466 75.3116 53.3427L80.7996 58.4707C80.9067 58.5718 80.9874 58.6975 81.0348 58.837C81.0822 58.9764 81.0948 59.1253 81.0716 59.2707L80.4796 62.4707C81.0489 63.4683 81.5332 64.512 81.9276 65.5907L85.3116 67.5987C85.4417 67.6755 85.5503 67.7841 85.6272 67.9141C85.7042 68.0442 85.7469 68.1916 85.7516 68.3427L86.0076 75.7907C86.0161 75.9464 85.9845 76.1018 85.9159 76.2418C85.8473 76.3819 85.7439 76.502 85.6156 76.5907L82.4156 78.8307C82.0999 79.9304 81.6904 81.001 81.1916 82.0307L81.9916 85.2307C82.0296 85.3788 82.0297 85.5341 81.9919 85.6823C81.9542 85.8305 81.8798 85.9668 81.7756 86.0787L76.6956 91.5187C76.5933 91.6241 76.4674 91.7038 76.3283 91.751C76.1893 91.7983 76.0409 91.8119 75.8956 91.7907L72.6956 91.1987C71.6975 91.7745 70.6508 92.2617 69.5676 92.6547L67.5596 96.0307C67.4815 96.1615 67.3716 96.2703 67.2401 96.3473C67.1086 96.4242 66.9599 96.4666 66.8076 96.4707L59.3676 96.7267L59.2796 96.7987ZM53.1836 90.0707C53.3251 90.0712 53.4647 90.104 53.5916 90.1667C54.7091 90.7365 55.8836 91.187 57.0956 91.5107C57.3037 91.5659 57.4852 91.6936 57.6076 91.8707L59.7436 94.9667L66.1996 94.7507L68.1116 91.5507C68.2286 91.3585 68.41 91.2139 68.6236 91.1427C69.8029 90.7255 70.9368 90.1894 72.0076 89.5427C72.198 89.4307 72.4223 89.391 72.6396 89.4307L75.7036 89.9907L80.1116 85.2707L79.3116 82.2387C79.2591 82.0236 79.2846 81.7968 79.3836 81.5987C79.9508 80.4864 80.3986 79.3173 80.7196 78.1107C80.7748 77.9004 80.9059 77.7181 81.0876 77.5987L84.1836 75.4627L83.9996 68.9667L80.7996 67.0467C80.6135 66.9376 80.474 66.7639 80.4076 66.5587C79.9922 65.3862 79.456 64.2602 78.8076 63.1987C78.6863 63.003 78.6408 62.7697 78.6796 62.5427L79.1996 59.4547L74.4796 55.0547L71.4396 55.8547C71.2242 55.9032 70.9988 55.8778 70.7996 55.7827C69.7027 55.2063 68.5501 54.7426 67.3596 54.3987C67.1494 54.3433 66.9654 54.2159 66.8396 54.0387L64.6956 50.9587L58.2476 51.1987L56.3196 54.3987C56.238 54.543 56.1155 54.6599 55.9676 54.7347L55.7836 54.8147C54.6223 55.2157 53.5067 55.7387 52.4556 56.3747C52.2654 56.4874 52.0409 56.5272 51.8236 56.4867L48.7356 55.9187L44.3276 60.6387L45.1276 63.6787C45.1832 63.8928 45.1605 64.1198 45.0636 64.3187C44.4968 65.4265 44.0464 66.59 43.7196 67.7907C43.6615 68.0017 43.5313 68.1857 43.3516 68.3107L40.2556 70.4467L40.4796 76.9027L43.6796 78.8227C43.8637 78.934 44.0026 79.1069 44.0716 79.3107C44.4855 80.4914 45.0217 81.6256 45.6716 82.6947C45.7836 82.8851 45.8233 83.1094 45.7836 83.3267L45.2236 86.4067L49.9436 90.8147L52.9676 90.0147C53.04 90.0086 53.1129 90.014 53.1836 90.0307V90.0707ZM62.2076 86.5507C58.622 86.4874 55.2065 85.0105 52.7045 82.4413C50.2025 79.8722 48.8165 76.4188 48.8481 72.8328C48.8798 69.2468 50.3265 65.8184 52.8735 63.2938C55.4204 60.7692 58.8614 59.3528 62.4476 59.3528C66.0337 59.3528 69.4748 60.7692 72.0217 63.2938C74.5687 65.8184 76.0154 69.2468 76.0471 72.8328C76.0787 76.4188 74.6927 79.8722 72.1907 82.4413C69.6887 85.0105 66.2732 86.4874 62.6876 86.5507H62.2076ZM62.2076 61.1507H61.7916C58.6652 61.2568 55.709 62.6005 53.5734 64.8862C51.4377 67.1719 50.2975 70.2123 50.4036 73.3387C50.5097 76.4651 51.8534 79.4213 54.139 81.5569C56.4247 83.6926 59.4652 84.8328 62.5916 84.7267C65.719 84.6747 68.6977 83.3825 70.8724 81.1343C73.0471 78.8861 74.2396 75.8661 74.1876 72.7387C74.1356 69.6113 72.8434 66.6326 70.5952 64.4579C68.347 62.2832 65.327 61.0907 62.1996 61.1427L62.2076 61.1507Z" fill="#EBEBEB"/>
<path d="M200.001 342.048C285.667 342.048 355.113 337.993 355.113 332.992C355.113 327.99 285.667 323.936 200.001 323.936C114.335 323.936 44.8887 327.99 44.8887 332.992C44.8887 337.993 114.335 342.048 200.001 342.048Z" fill="#F5F5F5"/>
<path d="M333.127 65.9668H66.8714C60.328 65.9668 55.0234 71.2713 55.0234 77.8148V248.047C55.0234 254.59 60.328 259.895 66.8714 259.895H333.127C339.671 259.895 344.975 254.59 344.975 248.047V77.8148C344.975 71.2713 339.671 65.9668 333.127 65.9668Z" fill="white"/>
<path d="M348.208 198.119H347.408V190.919H348.208V198.119ZM348.208 185.239H347.408V170.311H348.208V185.239Z" fill="#E70000"/>
<path d="M333.128 260.327H66.8718C63.6162 260.323 60.4952 259.028 58.1932 256.726C55.8912 254.424 54.596 251.303 54.5918 248.047V77.8152C54.5939 74.5589 55.8884 71.4367 58.1909 69.1342C60.4934 66.8317 63.6156 65.5373 66.8718 65.5352H333.128C336.384 65.5373 339.506 66.8317 341.809 69.1342C344.111 71.4367 345.406 74.5589 345.408 77.8152V248.047C345.404 251.303 344.108 254.424 341.806 256.726C339.504 259.028 336.383 260.323 333.128 260.327ZM66.8718 66.3992C63.8447 66.4013 60.9423 67.6047 58.8018 69.7452C56.6614 71.8856 55.4579 74.7881 55.4558 77.8152V248.047C55.4579 251.074 56.6614 253.977 58.8018 256.117C60.9423 258.258 63.8447 259.461 66.8718 259.463H333.128C336.155 259.461 339.057 258.258 341.198 256.117C343.338 253.977 344.542 251.074 344.544 248.047V77.8152C344.542 74.7881 343.338 71.8856 341.198 69.7452C339.057 67.6047 336.155 66.4013 333.128 66.3992H66.8718Z" fill="#E70000"/>
<path opacity="0.5" d="M151.84 219.8H147.84V218.936H151.84L151.912 219.8H151.84ZM143.776 219.8H139.736V218.936H143.776V219.8ZM135.704 219.8H131.704V218.936H135.704V219.8ZM127.64 219.8H123.6V218.936H127.64V219.8ZM119.568 219.8H115.568V218.936H119.568V219.8ZM111.496 219.8H107.496V218.936H111.496V219.8ZM103.432 219.8H99.432V218.936H103.432V219.8ZM95.36 219.8H91.36V218.936H95.36V219.8ZM87.296 219.8H83.296V218.936H87.296V219.8ZM79.224 219.8H77.72C76.8057 219.802 75.9038 219.589 75.088 219.176L75.472 218.376C76.1689 218.728 76.939 218.912 77.72 218.912H79.2L79.224 219.8ZM155.856 218.2L155.272 217.568C156.197 216.716 156.768 215.549 156.872 214.296L157.736 214.368C157.615 215.841 156.944 217.214 155.856 218.216V218.2ZM72.224 216C71.9664 215.322 71.8336 214.604 71.832 213.88V211.848H72.696V213.88C72.6945 214.498 72.8085 215.111 73.032 215.688L72.224 216ZM157.728 210.28H156.864V206.28H157.728V210.28ZM72.696 207.848H71.832V203.848H72.696V207.848ZM157.728 202.248H156.864V198.248H157.728V202.248ZM72.696 199.784H71.832V195.784H72.696V199.784ZM157.728 194.184H156.864V190.184H157.728V194.184ZM72.696 191.712H71.832V187.712H72.696V191.712ZM157.728 186.112H156.864V182.112H157.728V186.112ZM72.696 183.648H71.832V179.608H72.696V183.648ZM157.728 178.048H156.864V174.048H157.728V178.048ZM72.696 175.576H71.832V171.576H72.696V175.576ZM157.728 169.976H156.864V165.936H157.728V169.976ZM72.696 167.504H71.832V163.504H72.696V167.504ZM157.728 161.904H156.864V157.904H157.728V161.904ZM72.696 159.44H71.832V155.44H72.696V159.44ZM157.728 153.84H156.864V149.8H157.728V153.84ZM72.696 151.368H71.832V147.368H72.696V151.368ZM157.728 145.768H156.864V141.768H157.728V145.768ZM72.696 143.304H71.832V139.304H72.696V143.304ZM157.728 137.704H156.864V133.704H157.728V137.704ZM72.696 135.2H71.832V131.2H72.696V135.2ZM157.728 129.6H156.864V125.6H157.728V129.6ZM72.696 127.2H71.832V123.16H72.696V127.2ZM157.728 121.6H156.864V119.608C156.867 118.981 156.75 118.359 156.52 117.776L157.32 117.456C157.591 118.141 157.73 118.871 157.728 119.608V121.6ZM72.72 119.2L71.856 119.128C71.9827 117.665 72.6501 116.301 73.728 115.304L74.32 115.944C73.4089 116.772 72.8386 117.91 72.72 119.136V119.2ZM154.064 115.128C153.373 114.784 152.612 114.606 151.84 114.608H150.304V113.68H151.84C152.745 113.679 153.637 113.887 154.448 114.288L154.064 115.128ZM146.272 114.608H142.272V113.68H146.272V114.608ZM138.2 114.608H134.2V113.68H138.2V114.608ZM130.136 114.608H126.136V113.68H130.136V114.608ZM122.064 114.608H118.064V113.68H122.064V114.608ZM114 114.608H109.96V113.68H114V114.608ZM105.928 114.608H101.928V113.68H105.928V114.608ZM97.864 114.608H93.864V113.68H97.864V114.608ZM89.792 114.608H85.792V113.68H89.792V114.608ZM81.72 114.608H77.72V113.744H81.72V114.608Z" fill="#E70000"/>
<path d="M77.9351 78.4471C77.9351 79.2037 77.7106 79.9434 77.2901 80.5724C76.8696 81.2014 76.2719 81.6915 75.5726 81.9807C74.8734 82.2699 74.1041 82.3452 73.3621 82.197C72.6201 82.0488 71.9388 81.6838 71.4043 81.1482C70.8698 80.6126 70.5063 79.9305 70.3596 79.1882C70.213 78.4459 70.2898 77.6767 70.5805 76.9781C70.8712 76.2795 71.3625 75.6828 71.9924 75.2636C72.6223 74.8444 73.3625 74.6215 74.1191 74.6231C75.1319 74.6252 76.1025 75.029 76.8179 75.7459C77.5333 76.4628 77.9351 77.4343 77.9351 78.4471Z" fill="#E70000"/>
<path opacity="0.2" d="M103.007 80.679H84.2791C83.687 80.6769 83.1197 80.4414 82.7003 80.0235C82.2809 79.6056 82.0433 79.0391 82.0391 78.447C82.0412 77.8536 82.2778 77.2851 82.6975 76.8654C83.1171 76.4458 83.6856 76.2091 84.2791 76.207H103.007C103.6 76.2091 104.169 76.4458 104.589 76.8654C105.008 77.2851 105.245 77.8536 105.247 78.447C105.243 79.0391 105.005 79.6056 104.586 80.0235C104.166 80.4414 103.599 80.6769 103.007 80.679Z" fill="#E70000"/>
<path opacity="0.2" d="M193.327 79.6707H180.183C179.858 79.6707 179.547 79.5417 179.318 79.3122C179.088 79.0826 178.959 78.7713 178.959 78.4467C178.958 78.2856 178.989 78.126 179.05 77.977C179.111 77.828 179.201 77.6927 179.315 77.5788C179.429 77.4649 179.564 77.3748 179.713 77.3137C179.862 77.2526 180.022 77.2216 180.183 77.2227H193.327C193.488 77.2216 193.648 77.2526 193.797 77.3137C193.946 77.3748 194.081 77.4649 194.195 77.5788C194.309 77.6927 194.399 77.828 194.46 77.977C194.521 78.126 194.552 78.2856 194.551 78.4467C194.551 78.7713 194.422 79.0826 194.193 79.3122C193.963 79.5417 193.652 79.6707 193.327 79.6707Z" fill="#E70000"/>
<path opacity="0.2" d="M222.823 79.6707H209.679C209.355 79.6686 209.045 79.539 208.816 79.3099C208.587 79.0808 208.457 78.7707 208.455 78.4467C208.455 78.1221 208.584 77.8107 208.814 77.5812C209.043 77.3516 209.354 77.2227 209.679 77.2227H222.823C222.984 77.2216 223.144 77.2526 223.293 77.3137C223.442 77.3748 223.577 77.4649 223.691 77.5788C223.805 77.6927 223.895 77.828 223.956 77.977C224.017 78.126 224.048 78.2856 224.047 78.4467C224.047 78.7713 223.918 79.0826 223.689 79.3122C223.459 79.5417 223.148 79.6707 222.823 79.6707Z" fill="#E70000"/>
<path opacity="0.2" d="M252.321 79.6707H239.201C238.877 79.6686 238.566 79.539 238.337 79.3099C238.108 79.0808 237.979 78.7707 237.977 78.4467C237.977 78.1221 238.106 77.8107 238.335 77.5812C238.565 77.3516 238.876 77.2227 239.201 77.2227H252.321C252.482 77.2216 252.642 77.2525 252.791 77.3136C252.941 77.3746 253.077 77.4646 253.191 77.5783C253.306 77.6921 253.397 77.8274 253.459 77.9764C253.521 78.1255 253.553 78.2853 253.553 78.4467C253.55 78.772 253.42 79.0834 253.189 79.3127C252.958 79.542 252.646 79.6707 252.321 79.6707Z" fill="#E70000"/>
<path opacity="0.2" d="M281.823 79.6707H268.671C268.347 79.6686 268.037 79.5389 267.808 79.3098C267.579 79.0807 267.449 78.7706 267.447 78.4467C267.447 78.122 267.576 77.8107 267.806 77.5812C268.035 77.3516 268.347 77.2227 268.671 77.2227H281.823C282.148 77.2227 282.459 77.3516 282.689 77.5812C282.918 77.8107 283.047 78.122 283.047 78.4467C283.045 78.7706 282.916 79.0807 282.686 79.3098C282.457 79.5389 282.147 79.6686 281.823 79.6707Z" fill="#E70000"/>
<path opacity="0.7" d="M319.568 80.6073H299.68C299.107 80.6073 298.557 80.3797 298.152 79.9746C297.747 79.5696 297.52 79.0202 297.52 78.4473C297.518 78.163 297.574 77.8812 297.682 77.6182C297.79 77.3553 297.949 77.1162 298.149 76.9148C298.35 76.7133 298.589 76.5535 298.851 76.4445C299.114 76.3354 299.395 76.2793 299.68 76.2793H319.568C319.852 76.2793 320.133 76.3354 320.396 76.4445C320.659 76.5535 320.897 76.7133 321.098 76.9148C321.298 77.1162 321.457 77.3553 321.565 77.6182C321.674 77.8812 321.729 78.163 321.728 78.4473C321.728 79.0202 321.5 79.5696 321.095 79.9746C320.69 80.3797 320.14 80.6073 319.568 80.6073Z" fill="#E70000"/>
<path opacity="0.7" d="M220.815 216.592H183.567C181.022 216.592 178.959 218.655 178.959 221.2V222.2C178.959 224.745 181.022 226.808 183.567 226.808H220.815C223.36 226.808 225.423 224.745 225.423 222.2V221.2C225.423 218.655 223.36 216.592 220.815 216.592Z" fill="#E70000"/>
<path opacity="0.2" d="M319.279 170.952V132.056C319.278 131.895 319.309 131.735 319.37 131.586C319.431 131.437 319.522 131.302 319.635 131.188C319.749 131.074 319.885 130.984 320.034 130.923C320.183 130.862 320.342 130.831 320.503 130.832C320.828 130.832 321.139 130.961 321.369 131.191C321.598 131.42 321.727 131.731 321.727 132.056V170.952C321.727 171.277 321.598 171.588 321.369 171.818C321.139 172.047 320.828 172.176 320.503 172.176C320.342 172.177 320.183 172.146 320.034 172.085C319.885 172.024 319.749 171.934 319.635 171.82C319.522 171.706 319.431 171.571 319.37 171.422C319.309 171.273 319.278 171.113 319.279 170.952Z" fill="#E70000"/>
<path opacity="0.2" d="M320.503 183.27C321.179 183.27 321.727 182.722 321.727 182.046C321.727 181.37 321.179 180.822 320.503 180.822C319.827 180.822 319.279 181.37 319.279 182.046C319.279 182.722 319.827 183.27 320.503 183.27Z" fill="#E70000"/>
<path opacity="0.2" d="M320.503 200.567C321.179 200.567 321.727 200.019 321.727 199.343C321.727 198.667 321.179 198.119 320.503 198.119C319.827 198.119 319.279 198.667 319.279 199.343C319.279 200.019 319.827 200.567 320.503 200.567Z" fill="#E70000"/>
<path opacity="0.2" d="M320.503 217.864C321.179 217.864 321.727 217.316 321.727 216.64C321.727 215.964 321.179 215.416 320.503 215.416C319.827 215.416 319.279 215.964 319.279 216.64C319.279 217.316 319.827 217.864 320.503 217.864Z" fill="#E70000"/>
<path opacity="0.2" d="M283.551 114.111H188.783C183.357 114.111 178.959 118.508 178.959 123.931C178.959 129.355 183.357 133.751 188.783 133.751H283.551C288.977 133.751 293.375 129.355 293.375 123.931C293.375 118.508 288.977 114.111 283.551 114.111Z" fill="#E70000"/>
<path opacity="0.2" d="M248.801 162.271H188.801C186.197 162.265 183.702 161.228 181.861 159.387C180.02 157.546 178.983 155.051 178.977 152.447C178.983 149.844 180.02 147.348 181.861 145.507C183.702 143.666 186.197 142.629 188.801 142.623H248.801C251.403 142.631 253.896 143.669 255.735 145.51C257.574 147.351 258.61 149.845 258.617 152.447C258.61 155.049 257.574 157.543 255.735 159.384C253.896 161.225 251.403 162.263 248.801 162.271Z" fill="#E70000"/>
<path d="M266.399 185.238H181.255C180.647 185.236 180.064 184.994 179.634 184.564C179.204 184.134 178.961 183.551 178.959 182.942C178.961 182.334 179.204 181.751 179.634 181.321C180.064 180.891 180.647 180.649 181.255 180.646H266.399C267.007 180.649 267.59 180.891 268.02 181.321C268.45 181.751 268.693 182.334 268.695 182.942C268.693 183.551 268.45 184.134 268.02 184.564C267.59 184.994 267.007 185.236 266.399 185.238Z" fill="#EBEBEB"/>
<path d="M286.44 185.238H277.728C277.119 185.236 276.537 184.994 276.106 184.564C275.676 184.134 275.434 183.551 275.432 182.942C275.434 182.334 275.676 181.751 276.106 181.321C276.537 180.891 277.119 180.649 277.728 180.646H286.44C287.048 180.649 287.631 180.891 288.061 181.321C288.491 181.751 288.734 182.334 288.736 182.942C288.734 183.551 288.491 184.134 288.061 184.564C287.631 184.994 287.048 185.236 286.44 185.238Z" fill="#EBEBEB"/>
<path d="M218.776 190.15H255.392C256.001 190.152 256.584 190.395 257.014 190.825C257.444 191.255 257.686 191.838 257.688 192.446C257.686 193.055 257.444 193.637 257.014 194.068C256.584 194.498 256.001 194.74 255.392 194.742H218.776C218.168 194.74 217.585 194.498 217.155 194.068C216.725 193.637 216.483 193.055 216.48 192.446C216.483 191.838 216.725 191.255 217.155 190.825C217.585 190.395 218.168 190.152 218.776 190.15Z" fill="#EBEBEB"/>
<path d="M181.255 190.15H207.471C208.079 190.152 208.662 190.395 209.092 190.825C209.522 191.255 209.765 191.838 209.767 192.446C209.765 193.055 209.522 193.637 209.092 194.068C208.662 194.498 208.079 194.74 207.471 194.742H181.255C180.647 194.74 180.064 194.498 179.634 194.068C179.204 193.637 178.961 193.055 178.959 192.446C178.961 191.838 179.204 191.255 179.634 190.825C180.064 190.395 180.647 190.152 181.255 190.15Z" fill="#EBEBEB"/>
<path d="M232.847 204.246H181.255C180.647 204.244 180.064 204.002 179.634 203.571C179.204 203.141 178.961 202.559 178.959 201.95C178.961 201.342 179.204 200.759 179.634 200.329C180.064 199.899 180.647 199.656 181.255 199.654H232.847C233.455 199.656 234.038 199.899 234.468 200.329C234.898 200.759 235.141 201.342 235.143 201.95C235.141 202.559 234.898 203.141 234.468 203.571C234.038 204.002 233.455 204.244 232.847 204.246Z" fill="#EBEBEB"/>
<path d="M270.4 204.246H244.144C243.535 204.244 242.953 204.002 242.522 203.571C242.092 203.141 241.85 202.559 241.848 201.95C241.85 201.342 242.092 200.759 242.522 200.329C242.953 199.899 243.535 199.656 244.144 199.654H270.4C271.008 199.656 271.591 199.899 272.021 200.329C272.451 200.759 272.694 201.342 272.696 201.95C272.694 202.559 272.451 203.141 272.021 203.571C271.591 204.002 271.008 204.244 270.4 204.246Z" fill="#EBEBEB"/>
<path d="M156.209 101.506L83.2088 115.406C80.3008 115.959 78.3922 118.766 78.9459 121.674L96.6263 214.533C97.1799 217.441 99.9862 219.35 102.894 218.796L175.895 204.897C178.803 204.343 180.711 201.537 180.158 198.629L162.477 105.769C161.924 102.861 159.117 100.953 156.209 101.506Z" fill="#E70000"/>
<g opacity="0.2">
<path opacity="0.2" d="M100.094 215.584C100.027 215.583 99.9612 215.567 99.9018 215.536C99.8098 215.483 99.7417 215.398 99.7119 215.296C99.682 215.195 99.6928 215.085 99.7418 214.992L158.638 104.928C158.663 104.881 158.697 104.841 158.738 104.808C158.779 104.775 158.826 104.75 158.877 104.735C158.927 104.72 158.98 104.715 159.033 104.721C159.085 104.727 159.136 104.743 159.182 104.768C159.228 104.793 159.269 104.827 159.302 104.868C159.335 104.909 159.36 104.956 159.374 105.007C159.389 105.057 159.394 105.11 159.389 105.162C159.383 105.215 159.367 105.265 159.342 105.312L100.446 215.368C100.412 215.432 100.361 215.486 100.299 215.524C100.237 215.562 100.166 215.582 100.094 215.584Z" fill="white"/>
<path opacity="0.2" d="M177.151 200.912C177.057 200.91 176.966 200.876 176.895 200.816L81.6945 120.096C81.6539 120.062 81.6205 120.021 81.596 119.975C81.5716 119.929 81.5567 119.878 81.5522 119.826C81.5477 119.774 81.5538 119.721 81.57 119.671C81.5862 119.621 81.6122 119.575 81.6465 119.536C81.7162 119.455 81.8146 119.405 81.9207 119.396C82.0269 119.387 82.1323 119.42 82.2145 119.488L177.415 200.2C177.493 200.27 177.542 200.369 177.551 200.474C177.56 200.58 177.528 200.685 177.463 200.768C177.424 200.813 177.377 200.85 177.323 200.875C177.269 200.9 177.21 200.912 177.151 200.912Z" fill="white"/>
</g>
<path d="M167.814 211.256C167.814 211.256 178.214 247.52 182.486 265.328C186.934 284.032 200.158 312.304 201.262 324.704C202.406 325.16 206.11 324.648 208.086 323.688C208.086 323.688 206.278 284.16 195.526 266.16C197.926 221.848 185.926 211.256 185.926 211.256H167.814Z" fill="#E70000"/>
<path opacity="0.1" d="M181.335 229.473L175.463 238.489C177.327 245.289 179.231 252.377 180.783 258.489C182.399 247.921 181.335 229.473 181.335 229.473Z" fill="black"/>
<path d="M189.351 180C189.519 180.496 189.639 180.848 189.759 181.264C189.879 181.68 189.983 182.064 190.095 182.448C190.311 183.248 190.479 184.048 190.647 184.848C190.971 186.434 191.211 188.036 191.367 189.648C191.541 191.279 191.61 192.919 191.575 194.56C191.557 196.225 191.423 197.888 191.175 199.536V199.808C191.147 199.993 191.102 200.175 191.039 200.352C190.674 201.321 190.131 202.213 189.439 202.984C188.863 203.618 188.213 204.182 187.503 204.664C186.306 205.446 185.006 206.057 183.639 206.48C182.416 206.85 181.163 207.118 179.895 207.28C178.655 207.449 177.403 207.521 176.151 207.496C175.661 207.479 175.191 207.299 174.816 206.983C174.44 206.667 174.183 206.233 174.084 205.753C173.985 205.272 174.051 204.773 174.271 204.334C174.49 203.896 174.851 203.544 175.295 203.336L175.479 203.248C176.391 202.832 177.423 202.392 178.351 201.936C179.264 201.496 180.153 201.01 181.015 200.48C181.749 200.029 182.426 199.492 183.031 198.88C183.527 198.368 183.663 197.904 183.583 197.872L183.407 198.672C183.407 197.344 183.407 196.024 183.327 194.672C183.247 193.32 183.079 191.984 182.863 190.672C182.647 189.36 182.415 187.96 182.111 186.624C181.967 185.952 181.799 185.28 181.639 184.616L181.391 183.64L181.151 182.752L181.087 182.52C180.862 181.458 181.042 180.35 181.593 179.416C182.144 178.481 183.026 177.786 184.064 177.47C185.102 177.153 186.221 177.237 187.2 177.706C188.179 178.174 188.946 178.993 189.351 180Z" fill="#FF8B7B"/>
<path d="M178.863 203.391L173.639 201.903C172.891 201.685 172.089 201.748 171.383 202.079L169.431 202.967C169.204 203.071 168.999 203.22 168.829 203.404C168.66 203.588 168.529 203.804 168.444 204.039C168.359 204.275 168.322 204.525 168.335 204.775C168.348 205.025 168.41 205.27 168.519 205.495L169.431 207.383C169.613 207.764 169.918 208.073 170.297 208.259C170.676 208.445 171.107 208.497 171.519 208.407L175.023 207.647C175.023 207.647 178.959 207.903 180.351 205.567L178.863 203.391Z" fill="#FF8B7B"/>
<path d="M183.591 172.672C180.791 175.576 179.295 179.952 181.567 188.312C184.559 189.792 191.807 187.872 191.807 187.872C191.807 187.872 191.911 175.312 183.591 172.672Z" fill="#E70000"/>
<path opacity="0.7" d="M183.591 172.672C180.791 175.576 179.295 179.952 181.567 188.312C184.559 189.792 191.807 187.872 191.807 187.872C191.807 187.872 191.911 175.312 183.591 172.672Z" fill="white"/>
<path d="M188.671 178.505C188.636 178.505 188.601 178.512 188.569 178.526C188.537 178.54 188.508 178.56 188.484 178.585C188.46 178.611 188.441 178.641 188.429 178.674C188.417 178.707 188.412 178.742 188.415 178.777C188.419 178.844 188.448 178.907 188.497 178.953C188.546 178.999 188.611 179.025 188.679 179.025L189.983 178.977C189.911 178.809 189.831 178.633 189.751 178.465L188.671 178.505Z" fill="#263238"/>
<path d="M188.367 183.672C188.317 183.624 188.251 183.598 188.183 183.598C188.114 183.598 188.048 183.624 187.999 183.672C187.974 183.697 187.954 183.726 187.94 183.758C187.927 183.791 187.92 183.825 187.92 183.86C187.92 183.895 187.927 183.93 187.94 183.962C187.954 183.995 187.974 184.024 187.999 184.048L191.759 187.248C191.759 187.048 191.759 186.808 191.719 186.528L188.367 183.672Z" fill="#263238"/>
<path d="M180.8 184.599L185.032 181.943C185.092 181.906 185.134 181.847 185.149 181.779C185.165 181.71 185.153 181.639 185.116 181.579C185.079 181.52 185.02 181.478 184.952 181.462C184.883 181.446 184.812 181.458 184.752 181.495L180.704 184.039C180.696 184.223 180.736 184.415 180.8 184.599Z" fill="#E70000"/>
<path d="M176.423 160.152C175.895 163.824 175.519 170.488 178.119 172.576C178.119 172.576 174.687 172.488 168.079 177.792C165.679 175.072 167.063 173.936 167.063 173.936C170.983 172.496 170.743 169.536 169.919 166.832L176.423 160.152Z" fill="#FF8B7B"/>
<path d="M166.046 155.663C165.926 156.143 165.574 156.463 165.246 156.463C164.918 156.463 164.782 155.975 164.902 155.495C165.022 155.015 165.366 154.695 165.702 154.695C166.038 154.695 166.166 155.199 166.046 155.663Z" fill="#263238"/>
<path d="M165.831 154.753L164.783 154.217C164.783 154.217 165.135 155.201 165.831 154.753Z" fill="#263238"/>
<path d="M165.839 156.576C165.141 157.597 164.316 158.525 163.383 159.336C163.585 159.554 163.834 159.724 164.111 159.832C164.388 159.94 164.686 159.984 164.983 159.96L165.839 156.576Z" fill="#FF5652"/>
<path d="M165.639 151.705C165.624 151.672 165.617 151.636 165.617 151.601C165.617 151.565 165.624 151.53 165.639 151.497C165.668 151.427 165.725 151.372 165.795 151.343C165.866 151.315 165.944 151.315 166.015 151.345C166.455 151.493 166.856 151.741 167.185 152.07C167.514 152.399 167.762 152.8 167.911 153.241C167.92 153.276 167.922 153.314 167.916 153.35C167.91 153.387 167.896 153.422 167.876 153.453C167.855 153.484 167.829 153.51 167.797 153.53C167.766 153.55 167.731 153.563 167.695 153.569C167.619 153.58 167.542 153.563 167.477 153.522C167.412 153.481 167.365 153.418 167.343 153.345C167.221 152.996 167.02 152.681 166.756 152.423C166.493 152.165 166.173 151.971 165.823 151.857C165.782 151.848 165.744 151.829 165.712 151.803C165.68 151.776 165.655 151.743 165.639 151.705Z" fill="#263238"/>
<path d="M182.104 156.721C180.424 162.321 179.832 164.785 176.264 167.201C170.888 170.841 164.336 167.937 164.264 162.001C164.264 156.657 166.984 148.329 173.112 147.041C174.421 146.714 175.794 146.745 177.087 147.129C178.381 147.513 179.547 148.237 180.466 149.226C181.384 150.215 182.02 151.431 182.309 152.75C182.597 154.068 182.526 155.439 182.104 156.721Z" fill="#FF8B7B"/>
<path d="M169.047 157.073C165.703 154.673 167.335 150.337 170.399 150.201C166.399 147.401 168.487 142.337 173.375 142.537C178.263 142.737 178.975 145.737 178.975 145.737C178.975 145.737 186.863 146.137 187.967 151.865C189.271 158.617 185.151 162.937 180.079 164.937C183.527 167.761 175.399 169.737 171.351 167.465C167.303 165.193 165.759 160.081 169.047 157.073Z" fill="#263238"/>
<path d="M187.6 149.497C183.304 148.697 181.144 154.649 183.944 158.121C184.354 158.642 184.84 159.101 185.384 159.481C185.791 159.744 186.26 159.897 186.744 159.925C187.229 159.953 187.712 159.854 188.147 159.639C188.582 159.423 188.953 159.099 189.225 158.697C189.496 158.295 189.658 157.829 189.696 157.345C189.928 154.489 189.92 149.921 187.6 149.497Z" fill="white"/>
<path d="M199.271 152.537C199.425 152.434 199.555 152.299 199.653 152.142C199.751 151.985 199.814 151.809 199.839 151.625C200.023 149.945 198.751 148.849 197.223 148.609C196.303 145.689 192.423 145.633 190.239 147.729C188.447 146.817 186.463 148.825 186.703 150.929C184.823 151.729 184.303 154.929 186.047 156.705C186.351 157.022 186.702 157.292 187.087 157.505C187.169 157.548 187.254 157.583 187.343 157.609C187.436 158.265 187.728 158.877 188.181 159.362C188.633 159.847 189.223 160.182 189.871 160.321C190.226 160.395 190.59 160.417 190.951 160.385C191.212 160.357 191.461 160.26 191.672 160.104C191.883 159.948 192.048 159.738 192.151 159.497C193.399 160.521 194.735 161.193 195.687 160.529C196.132 160.232 196.491 159.825 196.73 159.346C196.969 158.867 197.078 158.335 197.047 157.801C197.326 157.944 197.637 158.013 197.951 158.002C198.265 157.991 198.57 157.9 198.839 157.737C200.679 156.481 200.519 154.193 199.271 152.537Z" fill="#263238"/>
<path d="M170.88 157.921C170.599 158.409 170.219 158.832 169.765 159.163C169.31 159.493 168.79 159.725 168.24 159.841C166.864 160.073 166.424 158.489 167.008 156.993C167.536 155.649 168.888 153.905 170.208 154.353C171.528 154.801 171.68 156.633 170.88 157.921Z" fill="#FF8B7B"/>
<path d="M169.047 153.736C170.223 151.488 176.663 145.352 180.951 145.576C181.83 145.82 182.68 146.158 183.487 146.584C183.519 146.6 183.545 146.626 183.561 146.658C183.577 146.69 183.581 146.726 183.574 146.761C183.567 146.796 183.548 146.828 183.52 146.851C183.493 146.874 183.459 146.887 183.423 146.888C181.743 147.088 176.287 148.352 171.167 156.4C170.282 155.67 169.56 154.763 169.047 153.736Z" fill="#E70000"/>
<path d="M171.615 158.305C170.583 160.601 168.511 161.913 166.983 161.225C165.455 160.537 165.055 158.121 166.087 155.817C167.119 153.513 169.199 152.209 170.727 152.897C172.255 153.585 172.647 156.001 171.615 158.305Z" fill="white"/>
<path d="M170.352 157.737C169.424 159.809 167.632 161.033 166.352 160.457C165.072 159.881 164.8 157.737 165.736 155.657C166.672 153.577 168.456 152.361 169.736 152.929C171.016 153.497 171.288 155.657 170.352 157.737Z" fill="#E70000"/>
<path d="M197.815 332.968C202.303 332.296 202.391 331.552 204.799 330.704C206.863 329.976 207.447 330.088 209.111 329.52C210.503 329.056 210.031 327.728 209.111 326.32C208.69 325.474 208.345 324.594 208.079 323.688L201.255 324.704C200.591 326.608 200.351 329.048 196.455 330.44C194.143 331.272 195.999 333.232 197.815 332.968Z" fill="#263238"/>
<path d="M156.183 332.984C160.647 332.984 161.503 332.688 164.015 332.6C166.167 332.528 166.519 332.984 168.703 332.984C170.143 332.984 170.343 331.384 169.815 330.136C169.468 329.051 169.201 327.941 169.015 326.816H162.863C161.751 328.768 158.719 330.208 155.335 330.456C152.943 330.632 154.399 332.984 156.183 332.984Z" fill="#263238"/>
<path d="M161.4 211.256C161.4 211.256 160.512 243.384 162.416 263.792C162.296 282.944 162.888 326.816 162.888 326.816C163.032 327.792 168.176 327.4 169.04 326.816C169.04 326.816 178.64 294.864 174.392 263.792C185.088 231.384 182.784 211.256 182.784 211.256H161.4Z" fill="#E70000"/>
<path d="M200.368 322.217C200.475 323.066 200.521 323.921 200.504 324.777C200.501 324.849 200.512 324.921 200.537 324.989C200.563 325.057 200.602 325.119 200.652 325.171C200.702 325.224 200.762 325.265 200.829 325.294C200.896 325.322 200.967 325.337 201.04 325.337C203.6 325.337 207.128 324.249 208.24 323.873C208.342 323.836 208.431 323.769 208.494 323.681C208.557 323.592 208.591 323.486 208.592 323.377V320.977C208.593 320.899 208.577 320.823 208.545 320.752C208.513 320.682 208.466 320.619 208.407 320.569C208.349 320.518 208.28 320.481 208.205 320.461C208.13 320.44 208.052 320.436 207.976 320.449L200.776 321.657C200.651 321.684 200.54 321.756 200.465 321.859C200.39 321.962 200.355 322.09 200.368 322.217Z" fill="#E70000"/>
<path opacity="0.5" d="M200.368 322.217C200.475 323.066 200.521 323.921 200.504 324.777C200.501 324.849 200.512 324.921 200.537 324.989C200.563 325.057 200.602 325.119 200.652 325.171C200.702 325.224 200.762 325.265 200.829 325.294C200.896 325.322 200.967 325.337 201.04 325.337C203.6 325.337 207.128 324.249 208.24 323.873C208.342 323.836 208.431 323.769 208.494 323.681C208.557 323.592 208.591 323.486 208.592 323.377V320.977C208.593 320.899 208.577 320.823 208.545 320.752C208.513 320.682 208.466 320.619 208.407 320.569C208.349 320.518 208.28 320.481 208.205 320.461C208.13 320.44 208.052 320.436 207.976 320.449L200.776 321.657C200.651 321.684 200.54 321.756 200.465 321.859C200.39 321.962 200.355 322.09 200.368 322.217Z" fill="white"/>
<path d="M162.184 324.112C162.184 324.784 162.12 325.968 162.064 326.84C162.055 326.982 162.1 327.121 162.191 327.23C162.282 327.339 162.411 327.408 162.552 327.424C164.813 327.612 167.087 327.588 169.344 327.352C169.452 327.341 169.554 327.295 169.634 327.222C169.715 327.148 169.77 327.051 169.792 326.944L170.248 324.544C170.261 324.466 170.258 324.385 170.238 324.308C170.218 324.231 170.182 324.159 170.132 324.097C170.082 324.035 170.02 323.984 169.948 323.948C169.877 323.912 169.799 323.892 169.72 323.888L162.712 323.616C162.644 323.612 162.576 323.621 162.512 323.644C162.448 323.667 162.39 323.703 162.34 323.75C162.291 323.796 162.251 323.852 162.224 323.915C162.197 323.977 162.184 324.044 162.184 324.112Z" fill="#E70000"/>
<path opacity="0.5" d="M162.184 324.112C162.184 324.784 162.12 325.968 162.064 326.84C162.055 326.982 162.1 327.121 162.191 327.23C162.282 327.339 162.411 327.408 162.552 327.424C164.813 327.612 167.087 327.588 169.344 327.352C169.452 327.341 169.554 327.295 169.634 327.222C169.715 327.148 169.77 327.051 169.792 326.944L170.248 324.544C170.261 324.466 170.258 324.385 170.238 324.308C170.218 324.231 170.182 324.159 170.132 324.097C170.082 324.035 170.02 323.984 169.948 323.948C169.877 323.912 169.799 323.892 169.72 323.888L162.712 323.616C162.644 323.612 162.576 323.621 162.512 323.644C162.448 323.667 162.39 323.703 162.34 323.75C162.291 323.796 162.251 323.852 162.224 323.915C162.197 323.977 162.184 324.044 162.184 324.112Z" fill="white"/>
<path d="M157.335 184.328C157.655 188.056 158.165 191.765 158.863 195.44C159.663 200.24 160.223 204.952 161.359 212.888C172.391 214.048 185.359 213.112 185.927 211.288C185.063 204.416 185.127 195.136 187.527 179.176C187.684 178.337 187.653 177.474 187.434 176.649C187.215 175.824 186.814 175.059 186.261 174.408C185.708 173.758 185.017 173.24 184.238 172.891C183.459 172.542 182.612 172.372 181.759 172.392C180.783 172.392 179.751 172.456 178.695 172.536C174.982 172.725 171.287 173.18 167.639 173.896C166.455 174.152 165.239 174.456 164.055 174.768C162.004 175.342 160.215 176.607 158.99 178.35C157.765 180.092 157.18 182.204 157.335 184.328Z" fill="#E70000"/>
<path opacity="0.8" d="M157.335 184.328C157.655 188.056 158.165 191.765 158.863 195.44C159.663 200.24 160.223 204.952 161.359 212.888C172.391 214.048 185.359 213.112 185.927 211.288C185.063 204.416 185.127 195.136 187.527 179.176C187.684 178.337 187.653 177.474 187.434 176.649C187.215 175.824 186.814 175.059 186.261 174.408C185.708 173.758 185.017 173.24 184.238 172.891C183.459 172.542 182.612 172.372 181.759 172.392C180.783 172.392 179.751 172.456 178.695 172.536C174.982 172.725 171.287 173.18 167.639 173.896C166.455 174.152 165.239 174.456 164.055 174.768C162.004 175.342 160.215 176.607 158.99 178.35C157.765 180.092 157.18 182.204 157.335 184.328Z" fill="white"/>
<path d="M159.303 177.912L160.591 179.512C160.615 179.542 160.645 179.566 160.68 179.583C160.714 179.6 160.752 179.608 160.791 179.608C160.852 179.611 160.912 179.591 160.959 179.552C161.012 179.508 161.047 179.445 161.054 179.376C161.062 179.307 161.042 179.238 160.999 179.184L159.655 177.496C159.535 177.6 159.415 177.768 159.303 177.912Z" fill="#263238"/>
<path d="M165.175 176.968C165.241 176.967 165.305 176.94 165.354 176.895C165.403 176.849 165.433 176.787 165.439 176.72L165.583 174.32L165.047 174.456L164.911 176.656C164.904 176.695 164.905 176.734 164.915 176.772C164.925 176.81 164.943 176.845 164.969 176.875C164.994 176.905 165.026 176.929 165.061 176.945C165.097 176.961 165.136 176.969 165.175 176.968Z" fill="#E70000"/>
<path d="M176.671 179.088C176.72 179.103 176.773 179.103 176.823 179.088C176.878 179.086 176.932 179.067 176.976 179.033C177.02 178.999 177.052 178.953 177.068 178.9C177.084 178.846 177.083 178.79 177.065 178.737C177.046 178.685 177.012 178.639 176.967 178.608L170.239 174.168C170.18 174.13 170.109 174.117 170.04 174.13C169.972 174.143 169.911 174.183 169.871 174.24C169.852 174.268 169.839 174.301 169.832 174.334C169.826 174.368 169.827 174.403 169.834 174.437C169.842 174.47 169.856 174.502 169.876 174.53C169.896 174.558 169.921 174.582 169.951 174.6L176.671 179.088Z" fill="#E70000"/>
<path d="M165.2 180.577C165.187 180.609 165.181 180.644 165.182 180.679C165.182 180.714 165.19 180.748 165.204 180.78C165.218 180.812 165.239 180.841 165.264 180.865C165.289 180.889 165.319 180.908 165.352 180.921L172.856 183.857H172.952C173.005 183.856 173.057 183.84 173.101 183.81C173.145 183.78 173.18 183.738 173.2 183.689C173.224 183.624 173.221 183.552 173.193 183.49C173.164 183.427 173.112 183.378 173.048 183.353L165.536 180.409C165.503 180.397 165.468 180.393 165.433 180.395C165.398 180.398 165.364 180.407 165.333 180.422C165.302 180.438 165.274 180.46 165.251 180.486C165.228 180.513 165.211 180.543 165.2 180.577Z" fill="#263238"/>
<path d="M160.863 193.944C160.921 193.98 160.992 193.992 161.059 193.977C161.126 193.963 161.185 193.922 161.223 193.864L165.599 187.088C165.635 187.03 165.647 186.959 165.632 186.892C165.617 186.825 165.577 186.766 165.519 186.728C165.49 186.709 165.458 186.696 165.424 186.69C165.39 186.684 165.356 186.684 165.322 186.692C165.288 186.699 165.257 186.713 165.229 186.733C165.201 186.753 165.177 186.779 165.159 186.808L160.799 193.6C160.767 193.656 160.757 193.721 160.768 193.784C160.78 193.847 160.813 193.904 160.863 193.944Z" fill="#E70000"/>
<path d="M158.719 188.001C158.769 188.046 158.834 188.072 158.903 188.073C158.955 188.072 159.006 188.055 159.049 188.025C159.092 187.995 159.125 187.953 159.144 187.904C159.163 187.855 159.166 187.801 159.155 187.75C159.143 187.699 159.117 187.653 159.079 187.617L157.479 186.145C157.479 186.401 157.527 186.673 157.559 186.945L158.719 188.001Z" fill="#E70000"/>
<path d="M182.455 192.505C182.388 192.53 182.335 192.58 182.305 192.644C182.275 192.708 182.271 192.782 182.295 192.849C182.314 192.898 182.348 192.941 182.392 192.971C182.437 193.001 182.489 193.017 182.543 193.017C182.571 193.024 182.602 193.024 182.631 193.017L185.959 191.801C185.959 191.609 185.999 191.417 186.015 191.225L182.455 192.505Z" fill="#E70000"/>
<path d="M181.031 187.088C181.079 187.087 181.126 187.073 181.167 187.048L186.935 183.424L187.031 182.744L180.887 186.6C180.829 186.638 180.789 186.697 180.774 186.764C180.759 186.831 180.771 186.902 180.807 186.96C180.83 186.999 180.863 187.031 180.902 187.053C180.942 187.076 180.986 187.088 181.031 187.088Z" fill="#E70000"/>
<path d="M177.095 188.097C177.056 188.039 176.996 187.998 176.927 187.983C176.859 187.968 176.787 187.98 176.727 188.017L169.903 192.305C169.845 192.344 169.804 192.404 169.789 192.473C169.775 192.541 169.787 192.613 169.823 192.673C169.849 192.709 169.882 192.739 169.921 192.76C169.96 192.78 170.003 192.792 170.047 192.793C170.095 192.792 170.142 192.778 170.183 192.753L177.007 188.465C177.067 188.427 177.109 188.367 177.126 188.299C177.142 188.23 177.131 188.158 177.095 188.097Z" fill="#E70000"/>
<path d="M182.847 179.016H182.943C183.007 178.989 183.059 178.939 183.088 178.875C183.116 178.811 183.118 178.738 183.095 178.672L180.695 172.408H180.143L182.543 178.808C182.556 178.876 182.596 178.935 182.652 178.974C182.709 179.013 182.779 179.028 182.847 179.016Z" fill="#263238"/>
<path d="M176.071 211.791C176.042 211.772 176.011 211.758 175.977 211.751C175.944 211.744 175.909 211.744 175.875 211.751C175.842 211.758 175.81 211.771 175.782 211.79C175.753 211.81 175.729 211.834 175.711 211.863C175.673 211.922 175.66 211.993 175.673 212.061C175.686 212.13 175.726 212.191 175.783 212.231L177.279 213.215L178.143 213.159L176.071 211.791Z" fill="#E70000"/>
<path d="M185.718 209.303L179.894 207.023C179.862 207.006 179.825 206.995 179.788 206.993C179.751 206.99 179.714 206.996 179.679 207.008C179.644 207.021 179.612 207.041 179.585 207.067C179.559 207.093 179.538 207.125 179.524 207.16C179.511 207.194 179.504 207.231 179.506 207.269C179.508 207.306 179.518 207.342 179.534 207.375C179.551 207.409 179.575 207.438 179.604 207.461C179.633 207.485 179.666 207.502 179.702 207.511L185.774 209.911C185.75 209.695 185.734 209.495 185.718 209.303Z" fill="#E70000"/>
<path d="M161.104 211.041C161.104 211.201 161.144 211.361 161.168 211.529C161.215 211.511 161.256 211.479 161.286 211.438C161.316 211.397 161.333 211.348 161.336 211.297C161.334 211.234 161.31 211.173 161.267 211.126C161.225 211.079 161.166 211.049 161.104 211.041Z" fill="#263238"/>
<path d="M161.032 202.993C161.086 202.992 161.138 202.975 161.181 202.944C161.225 202.913 161.258 202.869 161.276 202.819C161.294 202.768 161.297 202.714 161.283 202.662C161.27 202.61 161.241 202.564 161.2 202.529L159.744 201.305C159.744 201.561 159.816 201.817 159.856 202.105L160.856 202.953C160.909 202.984 160.971 202.998 161.032 202.993Z" fill="#E70000"/>
<path d="M173.319 200.361C173.372 200.36 173.424 200.344 173.468 200.314C173.512 200.284 173.547 200.242 173.567 200.193C173.591 200.128 173.588 200.057 173.559 199.994C173.531 199.931 173.479 199.882 173.415 199.857L165.911 196.913C165.878 196.9 165.844 196.894 165.809 196.895C165.774 196.895 165.739 196.903 165.707 196.917C165.675 196.931 165.646 196.952 165.622 196.977C165.598 197.002 165.579 197.032 165.567 197.065C165.554 197.097 165.548 197.131 165.549 197.166C165.55 197.2 165.557 197.234 165.572 197.265C165.586 197.297 165.606 197.325 165.631 197.348C165.657 197.372 165.687 197.39 165.719 197.401L173.223 200.345L173.319 200.361Z" fill="#263238"/>
<path d="M171.583 203.833L164.751 208.121C164.693 208.16 164.652 208.22 164.637 208.288C164.622 208.357 164.634 208.429 164.671 208.489C164.695 208.526 164.728 208.557 164.767 208.578C164.806 208.599 164.85 208.61 164.895 208.609C164.943 208.607 164.99 208.594 165.031 208.569L171.863 204.281C171.921 204.241 171.962 204.181 171.977 204.113C171.992 204.044 171.98 203.972 171.943 203.913C171.905 203.855 171.847 203.814 171.779 203.799C171.712 203.784 171.642 203.796 171.583 203.833Z" fill="#E70000"/>
<path d="M177.879 201.793C177.903 201.831 177.936 201.863 177.975 201.885C178.014 201.908 178.058 201.92 178.103 201.921C178.155 201.92 178.205 201.903 178.247 201.873L185.071 197.585C185.118 197.543 185.149 197.486 185.158 197.424C185.167 197.362 185.153 197.298 185.119 197.245C185.085 197.192 185.034 197.153 184.974 197.135C184.914 197.116 184.849 197.12 184.791 197.145L177.967 201.433C177.908 201.469 177.866 201.528 177.849 201.595C177.833 201.662 177.844 201.733 177.879 201.793Z" fill="#263238"/>
<path d="M170.151 212C170.138 211.967 170.119 211.938 170.095 211.912C170.071 211.887 170.042 211.867 170.01 211.853C169.978 211.839 169.944 211.831 169.909 211.83C169.874 211.829 169.839 211.835 169.807 211.848C169.774 211.861 169.744 211.88 169.719 211.904C169.694 211.928 169.674 211.957 169.659 211.989C169.645 212.02 169.638 212.055 169.637 212.09C169.636 212.125 169.642 212.159 169.655 212.192L170.095 213.352H170.655L170.151 212Z" fill="#263238"/>
<path d="M164.59 184.479C164.526 185.007 164.478 185.375 164.414 185.799C164.35 186.223 164.27 186.599 164.198 187.015C164.046 187.815 163.87 188.615 163.678 189.415C163.293 190.99 162.82 192.541 162.262 194.063C161.712 195.608 161.068 197.117 160.334 198.583C159.598 200.078 158.761 201.521 157.83 202.903L157.662 203.159C157.566 203.305 157.453 203.439 157.326 203.559C156.024 204.759 154.631 205.856 153.158 206.839C151.806 207.783 150.422 208.655 149.046 209.503C147.67 210.351 146.262 211.151 144.846 211.903C143.43 212.655 142.014 213.423 140.534 214.111C140.068 214.316 139.546 214.35 139.057 214.209C138.568 214.068 138.144 213.76 137.859 213.339C137.573 212.917 137.445 212.409 137.495 211.903C137.545 211.397 137.772 210.924 138.134 210.567C139.278 209.487 140.478 208.439 141.646 207.367L145.182 204.231C146.358 203.207 147.51 202.159 148.646 201.143C149.206 200.631 149.75 200.111 150.246 199.599L150.99 198.855C151.23 198.607 151.406 198.391 151.622 198.159L151.118 198.815C151.71 197.639 152.27 196.415 152.718 195.183C153.166 193.951 153.654 192.639 154.046 191.327C154.438 190.015 154.846 188.695 155.118 187.327C155.278 186.663 155.43 185.991 155.558 185.319L155.918 183.423L155.998 183.199C156.209 182.098 156.838 181.122 157.753 180.474C158.667 179.827 159.798 179.559 160.906 179.727C162.014 179.894 163.014 180.484 163.697 181.373C164.379 182.263 164.691 183.381 164.566 184.495L164.59 184.479Z" fill="#FF8B7B"/>
<path d="M140.223 210.4L135.735 209.072C134.989 208.853 134.189 208.907 133.479 209.224L131.519 210.096C131.289 210.197 131.082 210.343 130.91 210.525C130.738 210.708 130.605 210.923 130.518 211.158C130.43 211.393 130.391 211.643 130.402 211.893C130.414 212.144 130.475 212.39 130.583 212.616L131.479 214.512C131.658 214.894 131.96 215.205 132.338 215.394C132.715 215.583 133.146 215.638 133.559 215.552L137.063 214.824C138.192 214.886 139.322 214.728 140.391 214.36C140.684 214.247 140.948 214.069 141.163 213.84C141.378 213.61 141.538 213.335 141.632 213.035C141.726 212.735 141.75 212.418 141.705 212.107C141.659 211.797 141.543 211.5 141.367 211.24C141.093 210.837 140.689 210.54 140.223 210.4Z" fill="#FF8B7B"/>
<path d="M162.558 175.385C158.774 176.801 155.542 180.105 153.982 188.625C156.046 191.249 163.414 192.625 163.414 192.625C163.414 192.625 168.918 181.345 162.558 175.385Z" fill="#E70000"/>
<path opacity="0.8" d="M162.558 175.385C158.774 176.801 155.542 180.105 153.982 188.625C156.046 191.249 163.414 192.625 163.414 192.625C163.414 192.625 168.918 181.345 162.558 175.385Z" fill="white"/>
<path d="M160.592 179.519C160.616 179.549 160.646 179.573 160.681 179.59C160.716 179.607 160.754 179.615 160.792 179.615C160.853 179.618 160.913 179.598 160.96 179.559C161.014 179.515 161.048 179.452 161.055 179.383C161.063 179.315 161.043 179.246 161 179.191L159.4 177.199C159.264 177.311 159.128 177.423 159 177.543L160.592 179.519Z" fill="#263238"/>
<path d="M165.2 180.576C165.187 180.609 165.181 180.644 165.182 180.679C165.182 180.714 165.19 180.748 165.204 180.78C165.218 180.812 165.239 180.841 165.264 180.865C165.289 180.889 165.319 180.908 165.352 180.92H165.44C165.44 180.744 165.376 180.568 165.336 180.4C165.301 180.417 165.27 180.441 165.247 180.472C165.223 180.502 165.207 180.538 165.2 180.576Z" fill="#263238"/>
<path d="M162.19 192.369L165.014 187.993C165.118 187.577 165.206 187.153 165.286 186.713C165.234 186.73 165.189 186.764 165.158 186.809L161.646 192.241L162.19 192.369Z" fill="#E70000"/>
<path d="M158.72 188C158.77 188.046 158.836 188.071 158.904 188.072C158.956 188.071 159.007 188.054 159.05 188.024C159.093 187.994 159.126 187.952 159.145 187.903C159.164 187.854 159.168 187.801 159.156 187.75C159.144 187.699 159.118 187.652 159.08 187.616L155.2 184C155.136 184.176 155.072 184.36 155.016 184.544L158.72 188Z" fill="#E70000"/>
<path d="M267.199 262.256C266.087 257.92 267.431 256.272 269.007 254.544C270.583 252.816 270.407 249.928 270.407 249.928C271.92 253.26 272.517 256.936 272.135 260.576C271.423 266.352 267.999 265.424 267.199 262.256Z" fill="#263238"/>
<path d="M274.072 297.215C272.416 294.439 265.36 288.583 260.008 290.887C264.288 292.663 269.008 303.487 275.344 303.031L274.072 297.215Z" fill="#263238"/>
<path d="M279.047 321.248C278.881 321.24 278.721 321.18 278.591 321.077C278.46 320.973 278.365 320.832 278.319 320.672C277.287 316.44 268.143 278.52 264.559 251.6C264.544 251.404 264.601 251.209 264.721 251.052C264.841 250.896 265.014 250.789 265.207 250.752C265.305 250.738 265.406 250.743 265.502 250.768C265.599 250.793 265.689 250.837 265.768 250.897C265.847 250.957 265.913 251.033 265.963 251.12C266.012 251.206 266.043 251.301 266.055 251.4C269.623 278.24 278.751 316.096 279.783 320.32C279.819 320.513 279.783 320.713 279.681 320.882C279.579 321.05 279.419 321.175 279.231 321.232L279.047 321.248Z" fill="#E70000"/>
<path d="M266.399 253.232C266.495 250.032 265.015 248.104 261.295 247.76C257.575 247.416 256.399 245.864 255.695 244.416C256.951 251.728 265.719 253.56 266.567 257.168C266.399 254.464 266.399 253.232 266.399 253.232Z" fill="#E70000"/>
<path d="M268.087 265.295C267.783 261.967 265.095 261.511 262.031 261.111C258.967 260.711 257.959 258.711 257.959 258.711C257.591 260.078 257.603 261.519 257.993 262.879C258.384 264.24 259.138 265.468 260.175 266.431C263.783 269.887 268.311 267.727 268.087 265.295Z" fill="#E70000"/>
<path d="M273.176 294.679C272.648 290.959 275.2 289.423 274.776 283.959C282.112 296.447 274.008 300.511 273.176 294.679Z" fill="#E70000"/>
<path d="M269.759 279.511C267.695 276.367 264.767 276.903 261.455 272.543C264.223 286.743 272.991 284.431 269.759 279.511Z" fill="#E70000"/>
<path d="M285.159 280.254C285.343 275.23 280.687 272.582 277.119 267.566C279.287 277.55 284.871 288.126 285.159 280.254Z" fill="#263238"/>
<path d="M282.871 316.728H282.799C282.567 316.708 282.352 316.596 282.202 316.418C282.052 316.239 281.979 316.009 281.999 315.776C282.799 305.224 285.775 259.776 284.951 230.032C284.948 229.917 284.968 229.802 285.009 229.694C285.05 229.586 285.113 229.487 285.192 229.403C285.272 229.319 285.367 229.251 285.472 229.204C285.578 229.157 285.692 229.131 285.807 229.128C285.924 229.122 286.04 229.139 286.15 229.179C286.259 229.219 286.359 229.281 286.444 229.361C286.529 229.442 286.596 229.538 286.642 229.645C286.688 229.752 286.712 229.868 286.711 229.984C287.511 259.792 284.591 305.344 283.759 315.912C283.741 316.135 283.64 316.343 283.475 316.494C283.31 316.645 283.095 316.729 282.871 316.728Z" fill="#E70000"/>
<path d="M285.152 232.423C284.032 226.335 286.312 222.143 293.376 220.423C300.44 218.703 302.248 215.351 303.16 212.359C302.888 226.759 286.552 232.879 285.968 240.079C285.512 234.791 285.152 232.423 285.152 232.423Z" fill="#E70000"/>
<path d="M285.695 244.72C286.823 237.424 281.319 235.008 274.983 232.504C268.647 230 267.527 225.256 267.527 225.256C266.012 227.986 265.268 231.076 265.375 234.196C265.482 237.316 266.436 240.348 268.135 242.968C274.023 252.232 284.871 250.04 285.695 244.72Z" fill="#E70000"/>
<path d="M285.664 263.343C286.872 257.559 291.688 257.303 297.144 257.223C302.6 257.143 304.784 253.895 304.784 253.895C305.148 256.369 304.831 258.896 303.869 261.204C302.906 263.513 301.334 265.516 299.32 266.999C292.288 272.279 284.8 267.567 285.664 263.343Z" fill="#E70000"/>
<path d="M284.638 291.448C285.966 287.888 292.87 279.624 299.542 281.144C294.974 284.104 291.814 297.608 284.398 298.432C284.606 292.464 284.638 291.448 284.638 291.448Z" fill="#E70000"/>
<path d="M291.024 308.92H268.8C268.509 308.919 268.223 308.987 267.964 309.118C267.704 309.248 267.48 309.438 267.307 309.672C267.135 309.906 267.021 310.177 266.973 310.463C266.925 310.749 266.945 311.043 267.032 311.32L273.056 331.68C273.167 332.063 273.399 332.4 273.718 332.639C274.037 332.879 274.425 333.008 274.824 333.008H285.04C285.438 333.008 285.826 332.879 286.145 332.639C286.464 332.4 286.697 332.063 286.808 331.68L292.8 311.296C292.882 311.02 292.899 310.728 292.848 310.444C292.798 310.16 292.681 309.892 292.509 309.662C292.336 309.431 292.112 309.243 291.854 309.115C291.596 308.986 291.312 308.919 291.024 308.92Z" fill="#E70000"/>
<path opacity="0.2" d="M291.024 308.92H268.8C268.509 308.919 268.223 308.987 267.964 309.118C267.704 309.248 267.48 309.438 267.307 309.672C267.135 309.906 267.021 310.177 266.973 310.463C266.925 310.749 266.945 311.043 267.032 311.32L273.056 331.68C273.167 332.063 273.399 332.4 273.718 332.639C274.037 332.879 274.425 333.008 274.824 333.008H285.04C285.438 333.008 285.826 332.879 286.145 332.639C286.464 332.4 286.697 332.063 286.808 331.68L292.8 311.296C292.882 311.02 292.899 310.728 292.848 310.444C292.798 310.16 292.681 309.892 292.509 309.662C292.336 309.431 292.112 309.243 291.854 309.115C291.596 308.986 291.312 308.919 291.024 308.92Z" fill="#E70000"/>
<path opacity="0.7" d="M291.024 308.92H268.8C268.509 308.919 268.223 308.987 267.964 309.118C267.704 309.248 267.48 309.438 267.307 309.672C267.135 309.906 267.021 310.177 266.973 310.463C266.925 310.749 266.945 311.043 267.032 311.32L273.056 331.68C273.167 332.063 273.399 332.4 273.718 332.639C274.037 332.879 274.425 333.008 274.824 333.008H285.04C285.438 333.008 285.826 332.879 286.145 332.639C286.464 332.4 286.697 332.063 286.808 331.68L292.8 311.296C292.882 311.02 292.899 310.728 292.848 310.444C292.798 310.16 292.681 309.892 292.509 309.662C292.336 309.431 292.112 309.243 291.854 309.115C291.596 308.986 291.312 308.919 291.024 308.92Z" fill="white"/>
</svg>
