<svg width="64" height="64" viewBox="0 0 64 64" fill="none" xmlns="http://www.w3.org/2000/svg">
<circle cx="32" cy="32" r="32" fill="#EF0101" fill-opacity="0.2"/>
<path d="M44 29.3334C44 38.6667 32 46.6667 32 46.6667C32 46.6667 20 38.6667 20 29.3334C20 26.1508 21.2643 23.0985 23.5147 20.8481C25.7652 18.5977 28.8174 17.3334 32 17.3334C35.1826 17.3334 38.2348 18.5977 40.4853 20.8481C42.7357 23.0985 44 26.1508 44 29.3334Z" stroke="#E70000" stroke-width="2.5" stroke-linecap="round" stroke-linejoin="round"/>
<path d="M32 33.3334C34.2091 33.3334 36 31.5425 36 29.3334C36 27.1242 34.2091 25.3334 32 25.3334C29.7909 25.3334 28 27.1242 28 29.3334C28 31.5425 29.7909 33.3334 32 33.3334Z" stroke="#E70000" stroke-width="2.5" stroke-linecap="round" stroke-linejoin="round"/>
</svg>
