<svg width="24" height="24" viewBox="0 0 24 24" fill="none" xmlns="http://www.w3.org/2000/svg">
<path d="M6.03414 3.35779L5.84499 2.59995H5.0639H3.5999C3.54686 2.59995 3.49599 2.57888 3.45848 2.54137C3.42097 2.50387 3.3999 2.45299 3.3999 2.39995C3.3999 2.34691 3.42097 2.29604 3.45848 2.25853C3.49599 2.22102 3.54686 2.19995 3.5999 2.19995H5.99988C5.99988 2.19995 5.99989 2.19995 5.9999 2.19995C6.04448 2.19996 6.08778 2.21486 6.12292 2.24228L6.73815 1.45394L6.12292 2.24228C6.15799 2.26966 6.18294 2.30794 6.19381 2.35108C6.19383 2.35117 6.19385 2.35126 6.19388 2.35135L6.56562 3.84194L6.75467 4.59995H7.5359L20.3994 4.59995C20.3994 4.59995 20.3995 4.59995 20.3996 4.59995C20.4336 4.60001 20.467 4.60873 20.4967 4.6253C20.5265 4.6419 20.5515 4.66584 20.5694 4.69483C20.5873 4.72382 20.5975 4.75691 20.5991 4.79095C20.6006 4.82499 20.5934 4.85887 20.5782 4.88935L16.9783 12.0891L16.9782 12.0893C16.9616 12.1226 16.9361 12.1505 16.9045 12.17C16.8729 12.1896 16.8365 12.1999 16.7994 12.1999H8.8967H8.48249L8.1896 12.4928L6.9896 13.6928L6.29399 14.3885C6.29444 14.0452 6.42208 13.6954 6.70661 13.4107C6.70664 13.4106 6.70667 13.4106 6.70669 13.4106C6.7068 13.4105 6.7069 13.4104 6.70701 13.4103L7.77821 12.3403L8.1791 11.9398L8.04162 11.3901L6.41202 4.87413L6.41208 4.87412L6.40947 4.86412L6.4075 4.85585L6.40407 4.83996L6.40014 4.82419L6.03414 3.35779ZM6.71272 15.3999H7.6967H17.9999C18.0529 15.3999 18.1038 15.421 18.1413 15.4585L18.8484 14.7514L18.1413 15.4585C18.1788 15.496 18.1999 15.5469 18.1999 15.5999C18.1999 15.653 18.1788 15.7039 18.1413 15.7414L18.8484 16.4485L18.1413 15.7414C18.1038 15.7789 18.0529 15.7999 17.9999 15.7999H7.6967C7.2938 15.7999 6.95588 15.6427 6.71272 15.3999ZM18.1999 19.7999C18.1999 20.0121 18.1156 20.2156 17.9656 20.3656L18.6311 21.0311L17.9656 20.3656C17.8156 20.5157 17.6121 20.5999 17.3999 20.5999C17.1877 20.5999 16.9842 20.5157 16.8342 20.3656C16.6842 20.2156 16.5999 20.0121 16.5999 19.7999C16.5999 19.5878 16.6842 19.3843 16.8342 19.2343C16.9842 19.0842 17.1877 18.9999 17.3999 18.9999C17.6121 18.9999 17.8156 19.0842 17.9656 19.2343L18.6727 18.5272L17.9656 19.2343C18.1156 19.3843 18.1999 19.5878 18.1999 19.7999ZM8.36559 20.3656C8.21556 20.5157 8.01207 20.5999 7.7999 20.5999C7.58773 20.5999 7.38425 20.5157 7.23422 20.3656C7.08419 20.2156 6.9999 20.0121 6.9999 19.7999C6.9999 19.5878 7.08419 19.3843 7.23422 19.2343C7.38425 19.0842 7.58773 18.9999 7.7999 18.9999C8.01208 18.9999 8.21556 19.0842 8.36559 19.2343C8.51562 19.3843 8.5999 19.5878 8.5999 19.7999C8.5999 20.0121 8.51562 20.2156 8.36559 20.3656Z" fill="white" stroke="white" stroke-width="2"/>
</svg>
