<svg width="30" height="30" viewBox="0 0 30 30" fill="none" xmlns="http://www.w3.org/2000/svg">
<g clip-path="url(#clip0_157_317)">
<path d="M28.5909 3.68177C27.4156 4.51077 26.1144 5.14482 24.7372 5.5595C23.9981 4.70963 23.0158 4.10726 21.9231 3.83387C20.8305 3.56047 19.6803 3.62924 18.628 4.03088C17.5757 4.43251 16.6721 5.14763 16.0395 6.07952C15.4069 7.0114 15.0758 8.1151 15.0909 9.24132V10.4686C12.9341 10.5245 10.797 10.0462 8.86985 9.07618C6.9427 8.10619 5.28536 6.67465 4.04543 4.90905C4.04543 4.90905 -0.863664 15.9545 10.1818 20.8636C7.65426 22.5793 4.6433 23.4395 1.59088 23.3181C12.6363 29.4545 26.1363 23.3181 26.1363 9.2045C26.1352 8.86265 26.1023 8.52164 26.0381 8.18586C27.2907 6.95061 28.1746 5.39101 28.5909 3.68177V3.68177Z" stroke="white" stroke-width="1.5" stroke-linecap="round" stroke-linejoin="round"/>
</g>
<defs>
<clipPath id="clip0_157_317">
<rect width="29.4545" height="29.4545" fill="white" transform="translate(0.363586)"/>
</clipPath>
</defs>
</svg>
