<svg width="30" height="30" viewBox="0 0 30 30" fill="none" xmlns="http://www.w3.org/2000/svg">
<path d="M21.0454 2.45459H8.77272C5.3837 2.45459 2.63635 5.20193 2.63635 8.59095V20.8637C2.63635 24.2527 5.3837 27 8.77272 27H21.0454C24.4345 27 27.1818 24.2527 27.1818 20.8637V8.59095C27.1818 5.20193 24.4345 2.45459 21.0454 2.45459Z" stroke="white" stroke-width="1.5" stroke-linecap="round" stroke-linejoin="round"/>
<path d="M19.8182 13.9541C19.9696 14.9755 19.7952 16.0187 19.3196 16.9352C18.8441 17.8517 18.0916 18.595 17.1693 19.0592C16.247 19.5234 15.2017 19.685 14.1823 19.521C13.1628 19.3569 12.2211 18.8756 11.4909 18.1455C10.7608 17.4154 10.2795 16.4736 10.1155 15.4541C9.95141 14.4347 10.113 13.3895 10.5772 12.4672C11.0415 11.5448 11.7847 10.7924 12.7012 10.3168C13.6177 9.84124 14.6609 9.66678 15.6823 9.81824C16.7241 9.97274 17.6887 10.4582 18.4335 11.203C19.1782 11.9477 19.6637 12.9123 19.8182 13.9541Z" stroke="white" stroke-width="1.5" stroke-linecap="round" stroke-linejoin="round"/>
<path d="M21.6591 7.97705H21.6729" stroke="white" stroke-width="1.5" stroke-linecap="round" stroke-linejoin="round"/>
</svg>
