<svg width="64" height="64" viewBox="0 0 64 64" fill="none" xmlns="http://www.w3.org/2000/svg">
<circle cx="32" cy="32" r="32" fill="#EF0101" fill-opacity="0.2"/>
<path d="M44 29.3333C44 38.6666 32 46.6666 32 46.6666C32 46.6666 20 38.6666 20 29.3333C20 26.1507 21.2643 23.0984 23.5147 20.848C25.7652 18.5975 28.8174 17.3333 32 17.3333C35.1826 17.3333 38.2348 18.5975 40.4853 20.848C42.7357 23.0984 44 26.1507 44 29.3333Z" stroke="#E70000" stroke-width="2.5" stroke-linecap="round" stroke-linejoin="round"/>
<path d="M32 33.3333C34.2091 33.3333 36 31.5424 36 29.3333C36 27.1241 34.2091 25.3333 32 25.3333C29.7909 25.3333 28 27.1241 28 29.3333C28 31.5424 29.7909 33.3333 32 33.3333Z" stroke="#E70000" stroke-width="2.5" stroke-linecap="round" stroke-linejoin="round"/>
</svg>
