<svg width="54" height="54" viewBox="0 0 54 54" fill="none" xmlns="http://www.w3.org/2000/svg">
<path d="M36 18V36V18ZM27 24.75V36V24.75ZM18 31.5V36V31.5ZM13.5 45H40.5C41.6935 45 42.8381 44.5259 43.682 43.682C44.5259 42.8381 45 41.6935 45 40.5V13.5C45 12.3065 44.5259 11.1619 43.682 10.318C42.8381 9.47411 41.6935 9 40.5 9H13.5C12.3065 9 11.1619 9.47411 10.318 10.318C9.47411 11.1619 9 12.3065 9 13.5V40.5C9 41.6935 9.47411 42.8381 10.318 43.682C11.1619 44.5259 12.3065 45 13.5 45Z" stroke="white" stroke-width="3" stroke-linecap="round" stroke-linejoin="round"/>
</svg>
