<svg width="30" height="30" viewBox="0 0 30 30" fill="none" xmlns="http://www.w3.org/2000/svg">
<path d="M27.6627 7.87918C27.5169 7.29673 27.22 6.76306 26.802 6.33209C26.3839 5.90111 25.8596 5.58809 25.2818 5.42463C23.1709 4.90918 14.7273 4.90918 14.7273 4.90918C14.7273 4.90918 6.28363 4.90918 4.17272 5.47372C3.59498 5.63718 3.0706 5.9502 2.65255 6.38118C2.23451 6.81215 1.9376 7.34582 1.79181 7.92827C1.40548 10.0705 1.21651 12.2437 1.22726 14.4205C1.21349 16.6137 1.40248 18.8035 1.79181 20.9619C1.95253 21.5263 2.25609 22.0396 2.67317 22.4524C3.09024 22.8652 3.60673 23.1634 4.17272 23.3183C6.28363 23.8828 14.7273 23.8828 14.7273 23.8828C14.7273 23.8828 23.1709 23.8828 25.2818 23.3183C25.8596 23.1548 26.3839 22.8418 26.802 22.4108C27.22 21.9798 27.5169 21.4462 27.6627 20.8637C28.0461 18.7376 28.235 16.5809 28.2273 14.4205C28.241 12.2273 28.0521 10.0376 27.6627 7.87918V7.87918Z" stroke="white" stroke-width="1.5" stroke-linecap="round" stroke-linejoin="round"/>
<path d="M11.9659 18.4336L19.0227 14.4204L11.9659 10.4072V18.4336Z" stroke="white" stroke-width="1.5" stroke-linecap="round" stroke-linejoin="round"/>
</svg>
