<svg width="54" height="54" viewBox="0 0 54 54" fill="none" xmlns="http://www.w3.org/2000/svg">
<path d="M27 31.5L47.25 20.25L27 9L6.75 20.25L27 31.5Z" stroke="white" stroke-width="2"/>
<path d="M26.9991 31.5003L40.8591 23.8008C42.6827 28.4315 43.2003 33.4739 42.3553 38.3785C36.6483 38.9324 31.2678 41.2959 26.9991 45.124C22.7309 41.2964 17.3513 38.9329 11.6451 38.3785C10.7995 33.4739 11.3171 28.4313 13.1413 23.8008L26.9991 31.5003Z" stroke="white" stroke-width="2"/>
<path d="M18 45V28.125L27 23.1255M27 31.5L47.25 20.25L27 9L6.75 20.25L27 31.5ZM27 31.5L40.86 23.8005C42.6837 28.4312 43.2012 33.4736 42.3563 38.3782C36.6493 38.9322 31.2687 41.2957 27 45.1238C22.7319 41.2961 17.3522 38.9326 11.646 38.3782C10.8005 33.4737 11.318 28.4311 13.1423 23.8005L27 31.5Z" stroke="white" stroke-width="3" stroke-linecap="round" stroke-linejoin="round"/>
</svg>
