<svg width="33" height="32" viewBox="0 0 33 32" fill="none" xmlns="http://www.w3.org/2000/svg">
<path d="M25.8333 4H7.16667C5.69391 4 4.5 5.19391 4.5 6.66667V25.3333C4.5 26.8061 5.69391 28 7.16667 28H25.8333C27.3061 28 28.5 26.8061 28.5 25.3333V6.66667C28.5 5.19391 27.3061 4 25.8333 4Z" stroke="black" stroke-width="2" stroke-linecap="round" stroke-linejoin="round"/>
<path d="M11.8333 13.3333C12.9378 13.3333 13.8333 12.4379 13.8333 11.3333C13.8333 10.2288 12.9378 9.33334 11.8333 9.33334C10.7287 9.33334 9.83325 10.2288 9.83325 11.3333C9.83325 12.4379 10.7287 13.3333 11.8333 13.3333Z" stroke="black" stroke-width="2" stroke-linecap="round" stroke-linejoin="round"/>
<path d="M28.5001 20L21.8334 13.3333L7.16675 28" stroke="black" stroke-width="2" stroke-linecap="round" stroke-linejoin="round"/>
</svg>
