<svg width="55" height="54" viewBox="0 0 55 54" fill="none" xmlns="http://www.w3.org/2000/svg">
<path d="M23 47.25H32M43.25 47.25V11.25C43.25 10.0565 42.7759 8.91193 41.932 8.06802C41.0881 7.22411 39.9435 6.75 38.75 6.75H16.25C15.0565 6.75 13.9119 7.22411 13.068 8.06802C12.2241 8.91193 11.75 10.0565 11.75 11.25V47.25H43.25ZM43.25 47.25H47.75H43.25ZM43.25 47.25H32H43.25ZM11.75 47.25H7.25H11.75ZM11.75 47.25H23H11.75ZM20.75 15.75H23H20.75ZM20.75 24.75H23H20.75ZM32 15.75H34.25H32ZM32 24.75H34.25H32ZM23 47.25V36C23 35.4033 23.2371 34.831 23.659 34.409C24.081 33.9871 24.6533 33.75 25.25 33.75H29.75C30.3467 33.75 30.919 33.9871 31.341 34.409C31.7629 34.831 32 35.4033 32 36V47.25H23Z" stroke="white" stroke-width="3" stroke-linecap="round" stroke-linejoin="round"/>
</svg>
