<svg width="55" height="54" viewBox="0 0 55 54" fill="none" xmlns="http://www.w3.org/2000/svg">
<path d="M47.75 29.8238C41.3161 32.4253 34.4399 33.7585 27.5 33.75C20.3382 33.75 13.505 32.355 7.25 29.8238M27.5 27H27.5225M36.5 13.5V9C36.5 7.80653 36.0259 6.66193 35.182 5.81802C34.3381 4.97411 33.1935 4.5 32 4.5H23C21.8065 4.5 20.6619 4.97411 19.818 5.81802C18.9741 6.66193 18.5 7.80653 18.5 9V13.5H36.5ZM11.75 45H43.25C44.4435 45 45.5881 44.5259 46.432 43.682C47.2759 42.8381 47.75 41.6935 47.75 40.5V18C47.75 16.8065 47.2759 15.6619 46.432 14.818C45.5881 13.9741 44.4435 13.5 43.25 13.5H11.75C10.5565 13.5 9.41193 13.9741 8.56802 14.818C7.72411 15.6619 7.25 16.8065 7.25 18V40.5C7.25 41.6935 7.72411 42.8381 8.56802 43.682C9.41193 44.5259 10.5565 45 11.75 45Z" stroke="white" stroke-width="3" stroke-linecap="round" stroke-linejoin="round"/>
</svg>
