<svg width="201" height="200" viewBox="0 0 201 200" fill="none" xmlns="http://www.w3.org/2000/svg">
<path d="M168.556 78.7437H126.944V136.332H168.556V78.7437Z" fill="#EBEBEB"/>
<path d="M170.572 76.6079H124.928V78.7439H170.572V76.6079Z" fill="#DBDBDB"/>
<path d="M184.928 76.6079H170.572V78.7439H184.928V76.6079Z" fill="#EBEBEB"/>
<path d="M182.656 78.7437H168.556V136.332H182.656V78.7437Z" fill="#DBDBDB"/>
<path d="M164.072 105.396H131.424V86.9478H164.072V105.396ZM131.524 105.296H163.972V87.0478H131.524V105.296Z" fill="#C7C7C7"/>
<path d="M149.548 92.3398H143.192V95.9918H149.548V92.3398Z" fill="#C7C7C7"/>
<path d="M151.48 95.7679H145.02V92.5679H151.48V95.7679ZM145.12 95.6679H151.38V92.6639H145.12V95.6679Z" fill="#C7C7C7"/>
<path d="M164.072 128.58H131.424V110.132H164.072V128.58ZM131.524 128.48H163.972V110.232H131.524V128.48Z" fill="#C7C7C7"/>
<path d="M149.548 115.524H143.192V119.176H149.548V115.524Z" fill="#C7C7C7"/>
<path d="M151.48 118.952H145.02V115.752H151.48V118.952ZM145.12 118.852H151.38V115.848H145.12V118.852Z" fill="#C7C7C7"/>
<path d="M22.8438 16H88.7958V102.2H22.8438V16ZM87.0557 17.74H24.5837V100.46H87.0557V17.74Z" fill="#EBEBEB"/>
<path d="M57.3679 18.1919H55.6279V101.328H57.3679V18.1919Z" fill="#EBEBEB"/>
<path d="M21.2641 21.9355L90.3721 21.9355V19.5155L21.2641 19.5155V21.9355Z" fill="#EBEBEB"/>
<path d="M21.2641 24.6597L90.3721 24.6597V22.2397L21.2641 22.2397V24.6597Z" fill="#EBEBEB"/>
<path d="M21.2641 27.3838L90.3721 27.3838V24.9638L21.2641 24.9638V27.3838Z" fill="#EBEBEB"/>
<path d="M21.2641 30.1079L90.3721 30.1079V27.6879L21.2641 27.6879V30.1079Z" fill="#EBEBEB"/>
<path d="M21.2641 32.8315L90.3721 32.8315V30.4115L21.2641 30.4115V32.8315Z" fill="#EBEBEB"/>
<path d="M21.2641 35.5557L90.3721 35.5557V33.1357L21.2641 33.1357V35.5557Z" fill="#EBEBEB"/>
<path d="M21.2641 38.2798L90.3721 38.2798V35.8598L21.2641 35.8598V38.2798Z" fill="#EBEBEB"/>
<path d="M21.2641 41.0039L90.3721 41.0039V38.5839L21.2641 38.5839V41.0039Z" fill="#EBEBEB"/>
<path d="M21.2641 43.7319L90.3721 43.7319V41.3119L21.2641 41.3119V43.7319Z" fill="#EBEBEB"/>
<path d="M26.8676 19.0195H26.4316V74.8395H26.8676V19.0195Z" fill="#263238"/>
<path d="M25.876 76.868H27.42L27.032 74.6479H26.264L25.876 76.868Z" fill="#263238"/>
<path d="M25.2998 19.0195H24.8638V99.7715H25.2998V19.0195Z" fill="#263238"/>
<path d="M24.312 101.404H25.856L25.468 99.188H24.696L24.312 101.404Z" fill="#263238"/>
<path d="M18.5678 20.7236L93.0718 20.7236V15.6556L18.5678 15.6556V20.7236Z" fill="#DBDBDB"/>
<path d="M153.188 50.0679C157.588 54.3559 158.308 60.9919 157.384 66.8079C157.36 66.9399 157.156 66.9039 157.156 66.7799C157.156 65.4559 157.196 64.1439 157.192 62.8359L157.124 62.6599C155.944 61.8837 154.967 60.8357 154.276 59.6039C153.544 58.1639 153.256 56.5399 152.696 55.0359C152.644 54.8919 152.8 54.9359 152.9 55.0079C155.564 56.9759 156.416 59.0919 157.18 61.9159C157.164 60.4379 157.008 58.9648 156.716 57.5159C156.14 54.8319 155 52.1719 153.072 50.1839C153 50.1079 153.112 49.9999 153.188 50.0679Z" fill="#A6A6A6"/>
<path d="M152.364 50.5679C151.612 50.5919 151.14 51.7958 150.552 52.1678C150.49 52.2182 150.419 52.255 150.342 52.2758C150.265 52.2966 150.185 52.3009 150.106 52.2884C150.028 52.276 149.953 52.247 149.886 52.2035C149.82 52.16 149.763 52.1028 149.72 52.0358C149.136 51.2358 149.936 50.2239 150.688 49.6599C150.148 49.8839 149.704 50.2719 149.124 50.3799C149.05 50.4039 148.972 50.4119 148.895 50.4033C148.818 50.3947 148.743 50.3697 148.677 50.3299C148.61 50.2901 148.552 50.2365 148.508 50.1726C148.464 50.1088 148.434 50.0363 148.42 49.9599C148.164 48.8519 149.556 48.3599 150.508 48.3359C150.044 48.0119 148.72 47.1359 149.424 46.7079C150.128 46.2799 151.692 47.5079 152.2 47.9399C152.944 48.5439 153.832 49.4479 153.868 50.3919C153.912 51.4759 152.944 50.7999 152.364 50.5679Z" fill="#DBDBDB"/>
<path d="M152.584 50.7517C151.62 50.3117 149.784 50.9437 149.612 50.5797C149.292 49.8357 150.772 49.3277 151.568 49.2277C150.832 49.0277 149.424 48.7117 149.468 48.0037C149.52 47.1357 151.628 47.8797 152.696 48.6997C154.044 49.7317 154.032 50.7277 153.812 50.9237C153.504 51.1997 152.744 50.8237 152.584 50.7517Z" fill="#EBEBEB"/>
<path d="M163.168 49.6399C158.628 53.7599 157.64 60.368 158.34 66.212C158.34 66.344 158.564 66.316 158.568 66.192C158.62 64.868 158.632 63.556 158.684 62.252C158.712 62.192 158.732 62.136 158.76 62.076C159.969 61.3461 160.985 60.3348 161.72 59.128C162.52 57.72 162.856 56.108 163.472 54.628C163.528 54.484 163.376 54.5199 163.272 54.5919C160.532 56.4559 159.604 58.536 158.732 61.332C158.803 59.8489 159.013 58.3758 159.36 56.932C160.04 54.2719 161.28 51.6599 163.28 49.7319C163.282 49.7175 163.28 49.7027 163.275 49.689C163.27 49.6753 163.261 49.6632 163.25 49.6539C163.239 49.6446 163.225 49.6384 163.211 49.6359C163.196 49.6335 163.181 49.6349 163.168 49.6399Z" fill="#A6A6A6"/>
<path d="M163.972 50.1717C164.724 50.2277 165.152 51.4477 165.724 51.8237C165.784 51.8758 165.854 51.9148 165.931 51.9382C166.007 51.9615 166.087 51.9687 166.166 51.9593C166.245 51.9499 166.321 51.9241 166.39 51.8835C166.458 51.843 166.518 51.7885 166.564 51.7237C167.176 50.9237 166.416 49.8997 165.684 49.3237C166.216 49.5637 166.644 49.9717 167.22 50.1237C167.293 50.15 167.371 50.1602 167.449 50.1538C167.527 50.1475 167.602 50.1246 167.67 50.0867C167.738 50.0489 167.798 49.9969 167.844 49.9343C167.891 49.8717 167.923 49.7999 167.94 49.7237C168.236 48.6237 166.868 48.0797 165.916 48.0197C166.388 47.7157 167.748 46.8957 167.06 46.4197C166.372 45.9437 164.764 47.1477 164.26 47.5397C163.492 48.1157 162.568 48.9877 162.5 49.9397C162.396 51.0237 163.384 50.3997 163.972 50.1717Z" fill="#DBDBDB"/>
<path d="M163.748 50.3478C164.728 49.9478 166.548 50.6478 166.724 50.2918C167.072 49.5598 165.612 48.9958 164.82 48.8678C165.56 48.6958 166.984 48.4318 166.968 47.7198C166.948 46.8518 164.812 47.5158 163.712 48.2958C162.328 49.2758 162.3 50.2678 162.512 50.4758C162.808 50.7598 163.588 50.3998 163.748 50.3478Z" fill="#EBEBEB"/>
<path d="M158.524 60.5237C158.216 62.7278 157.744 64.9059 157.112 67.0397C157.108 67.0605 157.099 67.0802 157.088 67.0978C157.076 67.1153 157.061 67.1304 157.043 67.1421C157.025 67.1538 157.006 67.1619 156.985 67.1659C156.964 67.17 156.943 67.1699 156.922 67.1657C156.901 67.1615 156.881 67.1533 156.864 67.1415C156.846 67.1296 156.831 67.1145 156.82 67.0968C156.808 67.0792 156.8 67.0594 156.796 67.0386C156.792 67.0178 156.792 66.9965 156.796 66.9757C157.096 64.9757 157.64 62.9957 157.936 60.9757C158.263 58.9451 158.381 56.8864 158.288 54.8317C158.096 51.4477 157.176 47.8477 154.968 45.1997C154.92 45.1397 155.024 45.0517 155.072 45.1077C159.492 50.2637 158.788 56.5797 158.784 57.1477C159.412 55.0117 160.056 52.5677 162.424 50.3957C162.524 50.2997 162.604 50.3477 162.588 50.5037C162.164 54.4637 161.064 56.5277 158.768 58.6437C158.704 59.2837 158.624 59.9077 158.524 60.5237Z" fill="#A6A6A6"/>
<path d="M154.928 45.8078C154.128 45.4518 153.036 46.4638 152.248 46.5358C152.158 46.5574 152.065 46.5597 151.975 46.5428C151.884 46.5258 151.798 46.4899 151.723 46.4373C151.647 46.3848 151.584 46.3169 151.536 46.238C151.489 46.1592 151.459 46.0712 151.448 45.9798C151.252 44.8438 152.588 44.2078 153.648 44.0038C152.98 43.9598 152.324 44.1398 151.648 43.9638C151.558 43.9514 151.472 43.9198 151.396 43.8712C151.32 43.8226 151.255 43.7581 151.206 43.6822C151.157 43.6062 151.125 43.5206 151.112 43.4311C151.099 43.3417 151.106 43.2505 151.132 43.1638C151.424 41.8878 153.112 42.0758 154.116 42.5318C153.796 41.9638 152.86 40.3918 153.808 40.2998C154.756 40.2078 155.748 42.2998 156.068 42.9718C156.536 43.9758 157.004 45.3718 156.564 46.3558C156.072 47.5278 155.412 46.3398 154.928 45.8078Z" fill="#DBDBDB"/>
<path d="M155.06 46.1077C154.28 45.1677 152.044 44.9077 152.064 44.4317C152.104 43.5037 153.896 43.7197 154.776 44.0317C154.112 43.4517 152.812 42.4317 153.212 41.6997C153.704 40.8277 155.516 42.6637 156.212 44.0477C157.088 45.7957 156.58 46.8237 156.248 46.9197C155.792 47.0357 155.188 46.2637 155.06 46.1077Z" fill="#EBEBEB"/>
<path d="M161.432 61.7158L163.38 76.6078H151.52C151.764 75.2878 153.972 61.6958 153.972 61.6958L161.432 61.7158Z" fill="#EBEBEB"/>
<path fill-rule="evenodd" clip-rule="evenodd" d="M121.048 67.0475C120.68 66.7595 120.376 66.3675 119.848 66.3635C119.644 66.3635 119.704 66.1995 119.716 66.0875L120.328 60.1635C120.328 60.0195 120.364 59.9035 120.532 59.8395C122.132 59.2395 122.932 57.8115 123.984 56.6395C124.524 56.0538 124.941 55.3651 125.21 54.6147C125.479 53.8642 125.594 53.0673 125.548 52.2715C125.548 51.8235 125.76 51.6435 126.168 51.5955C126.376 51.5463 126.595 51.5656 126.792 51.6506C126.989 51.7356 127.153 51.8818 127.26 52.0675C127.609 52.9191 127.809 53.8242 127.852 54.7435C127.852 55.5035 127.516 56.2035 127.344 56.9355C127.22 57.4715 127.036 57.9955 126.876 58.5355C126.996 58.6475 127.156 58.6115 127.3 58.6275C128.966 58.8062 130.634 58.9809 132.304 59.1515C133.008 59.2275 133.328 59.4635 133.38 59.9515C133.403 60.2449 133.329 60.5379 133.171 60.7856C133.012 61.0333 132.776 61.2223 132.5 61.3235C132.368 61.3715 132.152 61.2915 132.1 61.4875C132.048 61.6835 132.296 61.6875 132.404 61.7795C132.964 62.2595 132.764 63.0995 132.004 63.5195C131.824 63.6235 131.504 63.5195 131.472 63.7795C131.44 64.0395 131.752 64.0035 131.872 64.1795C132.308 64.7115 131.972 65.5835 131.204 65.8715C131.1 65.8915 130.999 65.9196 130.9 65.9555C130.812 65.9995 130.724 66.0555 130.872 66.1875C131.54 66.7755 131.452 67.4955 130.668 67.9435L130.436 68.0755C130.155 68.208 129.838 68.2431 129.536 68.1755C126.92 67.9089 124.304 67.6422 121.688 67.3755C121.44 67.3545 121.21 67.2367 121.048 67.0475Z" fill="#EBEBEB"/>
<path fill-rule="evenodd" clip-rule="evenodd" d="M113.972 62.7997C114.104 61.5477 114.24 60.2917 114.372 59.0357C114.396 58.7797 114.436 58.6597 114.748 58.6957C116.281 58.8717 117.812 59.0317 119.34 59.1757C119.64 59.2037 119.676 59.3117 119.648 59.5757C119.381 62.1011 119.115 64.6264 118.848 67.1517C118.816 67.4757 118.72 67.5517 118.4 67.5157C116.915 67.3451 115.431 67.1917 113.948 67.0557C113.576 67.0237 113.548 66.8877 113.576 66.5637C113.724 65.2997 113.84 64.0437 113.972 62.7997Z" fill="#EBEBEB"/>
<path fill-rule="evenodd" clip-rule="evenodd" d="M110.856 50.3518C110.524 50.2238 110.216 50.0078 109.832 50.1198C109.684 50.1638 109.692 50.0318 109.676 49.9518L108.812 45.5078C108.812 45.3998 108.78 45.3118 108.888 45.2278C109.908 44.4278 110.18 43.2278 110.688 42.1278C110.952 41.5827 111.103 40.9901 111.132 40.3853C111.162 39.7806 111.069 39.176 110.86 38.6078C110.831 38.5476 110.817 38.4817 110.817 38.415C110.817 38.3483 110.832 38.2825 110.86 38.2223C110.889 38.1622 110.931 38.1092 110.983 38.0672C111.035 38.0252 111.095 37.9954 111.16 37.9798C111.301 37.8984 111.465 37.8641 111.626 37.8821C111.788 37.9001 111.94 37.9694 112.06 38.0798C112.5 38.6235 112.845 39.2374 113.08 39.8958C113.185 40.4574 113.224 41.0292 113.196 41.5998C113.224 41.9998 113.196 42.4398 113.196 42.8638C113.308 42.9198 113.416 42.8638 113.524 42.8398L117.28 42.1158C117.804 42.0118 118.08 42.1158 118.232 42.4518C118.318 42.6603 118.331 42.8914 118.271 43.1086C118.211 43.3259 118.081 43.517 117.9 43.6518C117.816 43.7158 117.636 43.7078 117.652 43.8558C117.668 44.0038 117.844 43.9598 117.94 44.0038C118.452 44.2238 118.492 44.8838 118.04 45.3558C117.932 45.4678 117.68 45.4718 117.708 45.6598C117.736 45.8478 117.964 45.7638 118.088 45.8438C118.524 46.1358 118.488 46.8478 117.98 47.2238C117.909 47.2608 117.84 47.3037 117.776 47.3518C117.72 47.4038 117.668 47.4638 117.804 47.5278C118.424 47.8078 118.516 48.3278 118.044 48.8478L117.904 48.9958C117.73 49.1532 117.51 49.2488 117.276 49.2678C115.311 49.6518 113.348 50.0318 111.388 50.4078C111.3 50.434 111.208 50.4426 111.116 50.433C111.025 50.4234 110.937 50.3958 110.856 50.3518Z" fill="#EBEBEB"/>
<path fill-rule="evenodd" clip-rule="evenodd" d="M104.772 48.8196C104.588 47.8796 104.412 46.9356 104.22 45.9956C104.184 45.8076 104.184 45.7076 104.42 45.6636C105.572 45.4556 106.716 45.2356 107.864 44.9996C108.088 44.9556 108.136 45.0236 108.176 45.2236C108.536 47.1196 108.903 49.0143 109.276 50.9076C109.324 51.1476 109.276 51.2276 109.028 51.2716C107.912 51.4756 106.8 51.6716 105.688 51.9196C105.412 51.9756 105.356 51.8876 105.312 51.6436C105.144 50.6996 104.952 49.7596 104.772 48.8196Z" fill="#EBEBEB"/>
<path d="M100.5 174.448C149.382 174.448 189.008 169.627 189.008 163.68C189.008 157.733 149.382 152.912 100.5 152.912C51.6186 152.912 11.9922 157.733 11.9922 163.68C11.9922 169.627 51.6186 174.448 100.5 174.448Z" fill="#EBEBEB"/>
<path d="M18.5679 136.4L39.0519 136.304L59.5359 136.268L100.5 136.2L141.468 136.268L161.948 136.304L182.432 136.4L161.948 136.5L141.468 136.532L100.5 136.6L59.5359 136.532L39.0519 136.496L18.5679 136.4Z" fill="#263238"/>
<path d="M36.376 102.196C39.248 96.2959 44.272 93.2639 49.932 94.9399C55.592 96.6159 56.472 104.508 52.244 106.504C48.016 108.5 43.792 102.676 41.56 101.48C39.328 100.284 36.376 102.196 36.376 102.196Z" fill="#00DDB5"/>
<path d="M33.5963 117.904C33.5963 117.192 33.6403 116.48 33.6643 115.772C33.7163 114.352 33.7643 112.928 33.8163 111.508C33.9123 108.912 34.1923 106.36 35.2683 103.968C36.2184 101.798 37.806 99.9673 39.8203 98.7199C40.5691 98.2673 41.3767 97.92 42.2203 97.6879C42.9847 96.915 43.9576 96.3813 45.0203 96.1519C46.3373 95.8829 47.6915 95.849 49.0203 96.0519C49.0683 96.0519 49.0683 96.1319 49.0203 96.1279C47.759 95.9642 46.4777 96.0554 45.2523 96.3959C44.7268 96.5395 44.2175 96.7365 43.7323 96.9839C43.4279 97.149 43.1352 97.3348 42.8563 97.5399C43.9991 97.3059 45.1786 97.3182 46.3163 97.5759C46.7263 97.6772 47.1275 97.811 47.5163 97.9759C47.8257 97.9057 48.1434 97.8788 48.4603 97.8959C48.8736 97.9085 49.2842 97.9675 49.6843 98.0719C50.5045 98.3021 51.2892 98.644 52.0163 99.0879C52.0563 99.1119 52.0163 99.1759 51.9763 99.1519C51.2612 98.7619 50.4951 98.4738 49.7003 98.2959C49.316 98.2084 48.9255 98.1509 48.5323 98.1239C48.3165 98.1119 48.1001 98.1119 47.8843 98.1239C49.4973 98.8688 50.7941 100.161 51.5443 101.772C51.5443 101.816 51.4963 101.852 51.4803 101.808C51.0334 100.874 50.3816 100.052 49.5734 99.4048C48.7653 98.7573 47.8215 98.3003 46.8123 98.0679C46.6883 98.0359 46.5603 98.0199 46.4363 97.9959C46.466 98.1855 46.486 98.3764 46.4963 98.5679C46.5323 98.8519 46.5803 99.1399 46.6403 99.4239C46.7555 100.009 46.9091 100.587 47.1003 101.152C47.2916 101.724 47.5201 102.282 47.7843 102.824C48.0394 103.394 48.3617 103.931 48.7443 104.424C48.7763 104.468 48.7123 104.516 48.6843 104.468C48.3443 103.936 47.9483 103.444 47.6363 102.892C47.3385 102.363 47.0817 101.812 46.8683 101.244C46.6506 100.67 46.482 100.078 46.3643 99.4759C46.3003 99.1559 46.2523 98.8359 46.2163 98.5159C46.1763 98.3226 46.1642 98.1247 46.1803 97.9279C45.518 97.8297 44.8459 97.8162 44.1803 97.8879C44.4323 99.2959 44.7003 100.764 45.4923 101.988C45.5163 102.028 45.4483 102.064 45.4243 102.024C45.0554 101.38 44.7307 100.712 44.4523 100.024C44.192 99.3519 44.029 98.6461 43.9683 97.9279C42.7992 98.0843 41.6709 98.4631 40.6443 99.0439C38.7099 100.169 37.165 101.857 36.2163 103.884C35.2198 106.067 34.6626 108.425 34.5763 110.824C34.3883 113.84 34.3483 116.876 34.0483 119.88C34.0483 120.08 33.7163 120.144 33.6803 119.924C33.5883 119.255 33.5602 118.578 33.5963 117.904Z" fill="#263238"/>
<path d="M40.2323 98.244C40.4229 98.0168 40.642 97.8152 40.8843 97.644C41.1203 97.448 41.3602 97.244 41.6122 97.088C42.1108 96.7476 42.6622 96.4922 43.2442 96.332C43.2922 96.332 43.3082 96.396 43.2442 96.404C42.6615 96.5576 42.1167 96.8299 41.6442 97.204C41.4043 97.38 41.1762 97.568 40.9523 97.764C40.7524 97.9732 40.5312 98.1609 40.2923 98.324C40.2817 98.3281 40.2701 98.3286 40.2593 98.3254C40.2484 98.3223 40.2389 98.3157 40.2321 98.3067C40.2253 98.2976 40.2216 98.2866 40.2217 98.2753C40.2217 98.264 40.2254 98.253 40.2323 98.244Z" fill="#263238"/>
<path d="M49.3959 100.4C49.8705 100.953 50.3101 101.536 50.7119 102.144C51.104 102.755 51.4324 103.405 51.6919 104.084C51.6919 104.104 51.6679 104.116 51.6559 104.084C50.9989 102.8 50.2235 101.58 49.3399 100.44C49.2999 100.4 49.3639 100.348 49.3959 100.4Z" fill="#263238"/>
<path d="M43.2202 99.7998C43.2799 100.169 43.3889 100.528 43.5442 100.868C43.7005 101.198 43.8824 101.514 44.0882 101.816C44.0882 101.816 44.0882 101.856 44.0562 101.84C43.565 101.275 43.2482 100.581 43.1442 99.8398C43.1402 99.7718 43.2122 99.7518 43.2202 99.7998Z" fill="#263238"/>
<path d="M33.9961 102.34C33.9961 102.34 29.9321 97.2317 22.1001 99.0437C14.6401 100.764 11.2001 114.44 18.7361 116.076C26.2721 117.712 24.9441 105.056 27.6881 102.908C29.7001 101.332 32.5881 101.672 33.9961 102.34Z" fill="#00DDB5"/>
<path d="M16.0283 106.512C16.5335 106.063 17.068 105.649 17.6283 105.272C18.1645 104.901 18.7503 104.608 19.3683 104.4C20.2298 103.08 21.3923 101.983 22.7603 101.2H22.5283C22.1283 101.2 21.6963 101.2 21.2803 101.2C20.444 101.255 19.6244 101.46 18.8603 101.804C18.8513 101.808 18.8409 101.809 18.8316 101.805C18.8222 101.802 18.8145 101.795 18.8103 101.786C18.8061 101.777 18.8056 101.767 18.8089 101.757C18.8123 101.748 18.8193 101.74 18.8283 101.736C19.5981 101.403 20.4033 101.159 21.2283 101.008C21.6322 100.935 22.042 100.901 22.4523 100.904C22.6723 100.904 22.8963 100.904 23.1123 100.94H23.2403C23.9592 100.577 24.7175 100.298 25.5003 100.108C25.4283 100.088 25.3563 100.064 25.2803 100.048C24.8972 99.9638 24.51 99.8998 24.1203 99.8559C23.3393 99.7679 22.5502 99.78 21.7723 99.8919C21.7243 99.8919 21.7123 99.8239 21.7723 99.8199C22.5604 99.724 23.355 99.6919 24.1483 99.7239C24.8126 99.7419 25.4734 99.8277 26.1203 99.9799C26.5931 99.8911 27.0717 99.8363 27.5523 99.8159C30.2883 99.6999 33.2683 100.724 34.9523 102.972C36.6363 105.22 36.9523 108.224 37.2643 110.94C37.7239 114.723 37.8243 118.542 37.5643 122.344C37.5643 122.568 37.2323 122.528 37.2243 122.312C37.1243 119.088 37.0083 115.864 36.7003 112.652C36.5563 111.164 36.4003 109.668 36.1523 108.196C35.9737 106.927 35.6084 105.69 35.0683 104.528C34.487 103.337 33.5654 102.346 32.4203 101.68C31.2717 101.023 29.9917 100.628 28.6723 100.524C27.4886 100.427 26.297 100.539 25.1523 100.856C25.1864 101.085 25.1864 101.319 25.1523 101.548C25.127 101.84 25.0694 102.129 24.9803 102.408C24.8926 102.67 24.7829 102.924 24.6523 103.168C24.5043 103.436 24.3243 103.676 24.1603 103.936C24.1363 103.976 24.0683 103.936 24.1003 103.892C24.4234 103.432 24.6319 102.901 24.7083 102.344C24.7563 102.079 24.7883 101.812 24.8043 101.544C24.8043 101.344 24.8043 101.144 24.8043 100.94C23.5595 101.322 22.3979 101.935 21.3803 102.748C21.1883 102.9 21.0043 103.06 20.8243 103.228C21.0807 103.463 21.3041 103.733 21.4883 104.028C21.7571 104.422 21.9913 104.838 22.1883 105.272C22.5509 106.145 22.7944 107.062 22.9123 108C22.9123 108.048 22.8443 108.064 22.8403 108C22.6958 107.091 22.3925 106.215 21.9443 105.412C21.74 105.014 21.5088 104.63 21.2523 104.264C21.1203 104.076 20.9803 103.888 20.8523 103.708C20.7723 103.608 20.6883 103.512 20.6163 103.404C19.6951 104.309 18.9421 105.371 18.3923 106.54C18.7617 106.933 19.0704 107.38 19.3083 107.864C19.5906 108.368 19.8366 108.892 20.0443 109.432C20.4235 110.478 20.7361 111.547 20.9803 112.632C20.9803 112.68 20.9163 112.692 20.9083 112.632C20.6695 111.539 20.2946 110.48 19.7923 109.48C19.5603 108.988 19.3123 108.504 19.0523 108.024C18.7773 107.583 18.5314 107.125 18.3163 106.652C17.7913 107.797 17.4873 109.03 17.4203 110.288C17.4203 110.336 17.3403 110.328 17.3443 110.288C17.4887 108.318 18.0914 106.408 19.1043 104.712C18.6243 104.916 18.1443 105.112 17.6843 105.364C17.0947 105.676 16.5465 106.06 16.0523 106.508C16.0403 106.6 15.9923 106.544 16.0283 106.512Z" fill="#263238"/>
<path d="M21.78 106.8C22.016 107.576 22.312 108.328 22.524 109.112C22.7413 109.861 22.8583 110.636 22.872 111.416C22.872 111.44 22.836 111.44 22.836 111.416C22.6189 109.85 22.2381 108.311 21.7 106.824C21.6984 106.819 21.6979 106.813 21.6985 106.808C21.699 106.802 21.7006 106.797 21.7032 106.792C21.7058 106.787 21.7094 106.783 21.7136 106.779C21.7179 106.776 21.7228 106.773 21.728 106.772C21.7333 106.77 21.7388 106.77 21.7442 106.77C21.7497 106.771 21.755 106.772 21.7598 106.775C21.7646 106.778 21.7689 106.781 21.7724 106.785C21.7758 106.79 21.7784 106.795 21.78 106.8Z" fill="#263238"/>
<path d="M16.8122 104.88C17.1188 104.582 17.4679 104.331 17.8482 104.136C18.2356 103.961 18.637 103.819 19.0482 103.712C19.0962 103.712 19.1082 103.776 19.0482 103.784C18.6424 103.891 18.2524 104.051 17.8882 104.26C17.5188 104.454 17.1633 104.673 16.8242 104.916C16.8217 104.92 16.8182 104.923 16.8141 104.924C16.81 104.926 16.8055 104.927 16.8011 104.926C16.7966 104.926 16.7924 104.924 16.789 104.921C16.7855 104.918 16.7829 104.914 16.7815 104.91C16.7801 104.906 16.7799 104.901 16.7809 104.897C16.782 104.893 16.7842 104.889 16.7874 104.885C16.7906 104.882 16.7947 104.88 16.799 104.879C16.8034 104.878 16.808 104.878 16.8122 104.88Z" fill="#263238"/>
<path d="M30.136 95.5199C30.136 95.5199 29.384 86.3199 22.56 83.3639C16.864 80.8799 13.6 87.2839 17.628 91.2039C20.9 94.3719 26.1 92.9439 30.136 95.5199Z" fill="#00DDB5"/>
<path d="M18.9002 85.144C19.9383 85.5624 20.9507 86.0419 21.9322 86.58C22.7501 87.0504 23.5371 87.5729 24.2882 88.144C24.1762 87.912 24.0762 87.668 23.9642 87.44C23.7842 87.088 23.5962 86.74 23.3842 86.404C22.9629 85.71 22.4578 85.0705 21.8802 84.5C21.8442 84.468 21.8802 84.416 21.9362 84.448C22.5185 85.0184 23.0536 85.6351 23.5362 86.292C23.7732 86.6238 23.9896 86.9697 24.1842 87.328C24.3774 87.6635 24.5228 88.0243 24.6162 88.4L24.6922 88.452C25.8843 89.4056 26.9766 90.4778 27.9522 91.652C27.9522 91.56 27.9122 91.472 27.8882 91.388C27.7602 90.94 27.6242 90.496 27.4882 90.052C27.1938 89.111 26.7797 88.2116 26.2562 87.376C26.2282 87.336 26.2962 87.3 26.3202 87.34C26.8553 88.1771 27.3324 89.0498 27.7482 89.952C27.9369 90.3925 28.0947 90.8456 28.2202 91.308C28.3183 91.6082 28.3918 91.9159 28.4402 92.228C28.7402 92.608 29.0322 92.988 29.3082 93.38C32.2362 97.548 33.7082 102.58 34.0602 107.64C34.1615 109.144 34.1869 110.653 34.1362 112.16C34.1233 113.682 33.9896 115.2 33.7362 116.7C33.7362 116.792 33.5682 116.764 33.5722 116.672C33.6042 115.348 33.7402 114.024 33.7682 112.7C33.7962 111.376 33.7682 110.04 33.6402 108.7C33.4234 106.052 32.9246 103.434 32.1522 100.892C31.358 98.2883 30.1883 95.8142 28.6802 93.548C28.3922 93.492 28.1082 93.416 27.8282 93.344C27.4842 93.256 27.1442 93.168 26.8042 93.072C26.1481 92.9 25.5104 92.6642 24.9002 92.368C24.8562 92.344 24.9002 92.28 24.9402 92.304C25.5407 92.6326 26.1926 92.8571 26.8682 92.968C27.4002 93.076 27.9562 93.144 28.4922 93.268C27.9962 92.548 27.4682 91.848 26.8922 91.18C25.5918 91.2987 24.2808 91.2014 23.0122 90.892C22.3324 90.7302 21.6643 90.523 21.0122 90.272C20.3282 90.008 19.6802 89.672 19.0122 89.388C18.9602 89.368 19.0122 89.292 19.0402 89.32C20.2622 89.9867 21.5964 90.4233 22.9762 90.608C24.1947 90.8026 25.4262 90.9055 26.6602 90.916C26.1722 90.36 25.6722 89.816 25.1402 89.316C23.3562 87.6 21.2282 86.032 18.8682 85.2C18.8242 85.2 18.8482 85.124 18.9002 85.144Z" fill="#263238"/>
<path d="M24.444 85.1721C24.7586 85.5602 25.0447 85.9706 25.3 86.4001C25.5547 86.8484 25.756 87.325 25.9 87.8201C25.9 87.8201 25.88 87.8481 25.876 87.8201C25.648 87.3721 25.476 86.9041 25.224 86.4561C25.0037 86.0146 24.7354 85.5987 24.424 85.2161C24.36 85.2001 24.412 85.1321 24.444 85.1721Z" fill="#263238"/>
<path d="M18.1 88.228C18.5442 88.4667 19.012 88.6584 19.496 88.8C19.9646 88.9528 20.4414 89.0797 20.924 89.18C20.924 89.18 20.924 89.224 20.924 89.22C20.4216 89.1664 19.9266 89.0577 19.448 88.896C18.9757 88.7194 18.5148 88.5137 18.068 88.28C18.0616 88.28 18.0552 88.2784 18.0497 88.2752C18.0441 88.2719 18.0395 88.2673 18.0364 88.2617C18.0332 88.2561 18.0316 88.2497 18.0317 88.2433C18.0319 88.2369 18.0337 88.2306 18.0371 88.2251C18.0404 88.2197 18.0452 88.2152 18.0509 88.2122C18.0566 88.2092 18.063 88.2078 18.0694 88.208C18.0758 88.2083 18.082 88.2103 18.0874 88.2139C18.0928 88.2174 18.0971 88.2223 18.1 88.228Z" fill="#263238"/>
<path d="M35.4402 93.8679C35.4802 94.2679 36.4722 90.5359 42.2402 87.2239C47.4802 84.2159 53.7322 76.3999 48.5962 71.4599C44.4482 67.4719 33.5242 76.1639 35.4402 93.8679Z" fill="#00DDB5"/>
<path d="M31.4683 115.244C31.5513 111.363 31.8572 107.49 32.3843 103.644C32.8389 100.103 33.6551 96.618 34.8203 93.2437C35.2483 92.0437 35.7403 90.8437 36.2723 89.6437C36.2421 89.1865 36.2502 88.7276 36.2963 88.2717C36.3243 87.6837 36.3763 87.0997 36.4323 86.5117C36.4883 85.9237 36.5443 85.3397 36.6163 84.7557C36.6883 84.1717 36.8083 83.5917 36.8323 83.0077C36.8323 82.9557 36.9203 82.9637 36.9043 83.0077C36.7903 83.6204 36.7221 84.2408 36.7003 84.8637C36.6563 85.4317 36.6243 85.9957 36.6043 86.5637C36.5843 87.1317 36.6043 87.6997 36.6043 88.2677C36.6043 88.4717 36.6043 88.6917 36.6043 88.9077C37.1483 87.7637 37.7283 86.6317 38.3563 85.5357C37.9563 83.1357 38.4763 80.6397 38.9643 78.3037C38.9643 78.2557 39.0443 78.2757 39.0363 78.3037C38.7959 79.5254 38.6687 80.7666 38.6563 82.0117C38.6323 82.9957 38.6803 83.9757 38.6843 84.9597C38.8203 84.7237 38.9603 84.4877 39.0843 84.2557C39.831 83.0317 40.631 81.8317 41.4843 80.6557C41.4168 80.0881 41.4357 79.5136 41.5403 78.9517C41.6276 78.3214 41.7613 77.6984 41.9403 77.0877C42.1243 76.4744 42.3363 75.873 42.5763 75.2837C42.8283 74.6797 43.1603 74.1037 43.4003 73.4957C43.4045 73.4867 43.4122 73.4797 43.4216 73.4763C43.4309 73.473 43.4413 73.4735 43.4503 73.4777C43.4593 73.4819 43.4663 73.4896 43.4696 73.499C43.473 73.5083 43.4725 73.5187 43.4683 73.5277C43.1624 74.102 42.921 74.7083 42.7483 75.3357C42.5573 75.925 42.3997 76.5246 42.2763 77.1317C42.1523 77.7397 42.0523 78.3317 41.9683 78.9597C41.9123 79.3597 41.8763 79.7877 41.8043 80.1997C43.0552 78.5742 44.4172 77.0372 45.8803 75.5997C45.9163 75.5677 45.9643 75.6197 45.9323 75.6557C43.7349 78.1156 41.7717 80.7751 40.0683 83.5997C40.0043 83.7037 39.9443 83.8117 39.8843 83.9197C40.2003 83.7197 40.5643 83.5637 40.8643 83.3957C41.4243 83.0837 41.9856 82.7757 42.5483 82.4717L44.1803 81.5997C44.4603 81.4437 44.7363 81.2797 45.0203 81.1357C45.3611 80.9827 45.6889 80.8021 46.0003 80.5957C46.0443 80.5597 46.0883 80.6277 46.0443 80.6517C45.4883 80.9597 44.9963 81.4117 44.4443 81.7557C43.8923 82.0997 43.3563 82.4317 42.7963 82.7437C41.7723 83.3157 40.6563 83.7277 39.6483 84.3197C38.9483 85.5437 38.3043 86.8037 37.7083 88.0837C38.3216 87.6917 38.9456 87.317 39.5803 86.9597C39.9883 86.733 40.4003 86.509 40.8163 86.2877C41.2281 86.0989 41.6173 85.8641 41.9763 85.5877C42.0123 85.5557 42.0643 85.5877 42.0283 85.6397C41.3621 86.2484 40.6232 86.7724 39.8283 87.1997C39.0843 87.6317 38.3363 88.0517 37.5683 88.4277C36.947 89.7797 36.3896 91.1557 35.8963 92.5557C33.4683 99.4317 32.5763 106.732 32.1483 113.984C32.0243 116.144 31.9563 118.304 31.9283 120.468C31.9003 122.632 32.0163 124.788 32.0123 126.948C32.0123 127.012 31.9083 127.028 31.9003 126.948C31.6403 125.028 31.5923 123.08 31.5003 121.152C31.4083 119.224 31.4243 117.2 31.4683 115.244Z" fill="#263238"/>
<path d="M41.9482 84.116C43.003 83.6468 44.0277 83.1124 45.0162 82.516C46.0189 81.9519 46.9909 81.3351 47.9282 80.668C47.9282 80.668 47.9602 80.668 47.9282 80.696C47.0422 81.4134 46.1066 82.067 45.1282 82.652C44.104 83.2214 43.0461 83.7276 41.9602 84.168C41.9402 84.2 41.9042 84.132 41.9482 84.116Z" fill="#263238"/>
<path d="M40.2762 76.3399C40.3642 76.0079 40.4682 75.6759 40.5842 75.3479C40.5842 75.3479 40.5602 75.3279 40.5842 75.3119C40.6562 75.1239 40.7322 74.9399 40.8082 74.7559C40.8082 74.7319 40.8082 74.7079 40.8362 74.6879C40.8642 74.6679 40.8642 74.6199 40.8802 74.5839C40.8962 74.5479 40.8802 74.5839 40.8802 74.5839C40.8802 74.5839 40.8442 74.7119 40.8242 74.7759C40.8168 74.8123 40.8074 74.8484 40.7962 74.8839C40.4132 76.1659 40.127 77.4749 39.9402 78.7999C39.9402 78.8399 39.8682 78.8439 39.8722 78.7999C39.9287 77.9689 40.0639 77.1452 40.2762 76.3399Z" fill="#263238"/>
<path d="M25.3721 116.64L25.7841 121.52L27.0441 136.4H40.5441L41.8041 121.52L42.2161 116.64H25.3721Z" fill="#455A64"/>
<path d="M25.3721 116.64L25.7841 121.52H41.8041L42.2161 116.64H25.3721Z" fill="#263238"/>
<path d="M24.048 119.36H43.54V114.68H24.048V119.36Z" fill="#455A64"/>
<path d="M81.5439 114.608C81.2199 114.628 79.7079 114.716 77.5039 114.856C76.6759 113.476 75.6759 111.02 75.9359 107.476C75.9799 106.892 74.7359 110.296 75.4519 114.984C71.1839 115.244 65.3839 115.596 60.3119 115.856C60.1399 113.88 59.8919 112.056 59.8919 112.056C59.778 113.36 59.5491 114.652 59.2079 115.916C58.5159 115.96 57.8359 115.984 57.1839 116.016C57.2159 112.936 56.4999 107.6 56.4999 107.6C56.242 110.551 55.5015 113.441 54.3079 116.152C51.1079 116.284 48.9639 116.312 49.1079 116.152C53.7719 110.38 50.0839 107.296 51.2879 102.324C52.7319 96.3641 57.7799 95.2401 57.4639 90.8161C57.2159 87.2161 56.5239 80.6961 61.0239 79.1281C62.2108 77.8773 63.7399 77.0039 65.4201 76.617C67.1004 76.23 68.8575 76.3465 70.4719 76.9521C77.7679 79.4401 75.3359 90.6601 75.9119 92.9001C76.7119 96.1001 78.3119 97.1841 79.5919 100.824C80.8719 104.464 79.2999 107.044 79.1919 109.576C79.0839 112.108 82.3519 114.572 81.5439 114.608Z" fill="#263238"/>
<path d="M48.8999 115.36C49.5286 114.366 50.0147 113.289 50.3439 112.16C50.6719 111.048 50.4719 109.932 50.2039 108.776C49.9015 107.611 49.6599 106.43 49.4799 105.24C49.3021 103.997 49.3755 102.73 49.6959 101.516C50.0451 100.301 50.6692 99.183 51.5199 98.2481C52.3426 97.3582 53.2377 96.5381 54.1959 95.7961C55.1243 95.085 55.9554 94.2553 56.6679 93.3281C57.3489 92.3658 57.7542 91.2358 57.8399 90.0601C57.933 91.282 57.6541 92.5036 57.0399 93.5641C56.3928 94.5983 55.5931 95.5288 54.6679 96.3241C53.7887 97.1006 52.959 97.9316 52.1839 98.8121C51.4545 99.6736 50.9185 100.682 50.6119 101.768C50.3326 102.868 50.2607 104.01 50.3999 105.136C50.5079 106.288 50.7679 107.44 50.9639 108.628C51.0736 109.233 51.1365 109.845 51.1519 110.46C51.1489 111.091 51.0338 111.717 50.8119 112.308C50.3576 113.429 49.7105 114.462 48.8999 115.36Z" fill="#263238"/>
<path d="M74.6763 80.9321C75.2264 82.3035 75.6078 83.7367 75.8123 85.2001C76.0523 86.6561 76.2123 88.1201 76.3683 89.5761L76.6043 91.7521C76.6696 92.4542 76.8036 93.1482 77.0043 93.8241C77.4043 95.1601 78.2043 96.3081 79.1083 97.4761C79.5658 98.0742 79.9828 98.7023 80.3563 99.3561C80.7273 100.028 81.0224 100.739 81.2363 101.476C81.424 102.211 81.5577 102.958 81.6363 103.712C81.717 104.472 81.7035 105.239 81.5963 105.996C81.4923 106.752 81.3083 107.468 81.1563 108.172C81.0021 108.872 80.915 109.584 80.8963 110.3C80.9018 111.017 81.0777 111.721 81.4095 112.356C81.7413 112.991 82.2193 113.538 82.8043 113.952C82.1402 113.588 81.5767 113.065 81.1642 112.43C80.7516 111.794 80.5029 111.067 80.4403 110.312C80.4001 109.561 80.4362 108.808 80.5483 108.064C80.6483 107.324 80.8043 106.616 80.8603 105.912C80.9507 104.5 80.784 103.084 80.3683 101.732C80.1596 101.065 79.8821 100.422 79.5403 99.8121C79.1801 99.1967 78.7792 98.6061 78.3403 98.0441C77.8848 97.4504 77.4602 96.8336 77.0683 96.1961C76.6721 95.5345 76.359 94.8265 76.1363 94.0881C75.9415 93.3522 75.8169 92.5995 75.7643 91.8401C75.6963 91.1001 75.6563 90.3681 75.6163 89.6361C75.5323 88.1721 75.4643 86.7121 75.3403 85.2601C75.2679 83.7985 75.0454 82.3482 74.6763 80.9321Z" fill="#263238"/>
<path d="M187.26 160.176C186.012 160.652 149.808 162.268 148.392 161.46C148.236 161.368 148.28 159.768 147.748 155.636C147.72 155.44 146.892 154.672 145.604 153.592C140.764 149.532 129.384 140.976 129.384 140.976L147.452 125.28L164.964 142.48L169.516 146.956C169.516 146.956 184.316 153.988 185.772 155.044C187.228 156.1 188.5 159.696 187.26 160.176Z" fill="#DD6A57"/>
<path d="M187.26 160.176C186.012 160.652 149.808 162.268 148.388 161.46C148.236 161.368 148.276 159.768 147.744 155.636C152.924 156.436 180.544 157.856 181.488 154.604C181.864 153.324 177.76 151.004 177.02 150.58C180.924 152.476 185.02 154.52 185.776 155.048C187.228 156.108 188.5 159.696 187.26 160.176Z" fill="#263238"/>
<path d="M158.576 134.456L155.776 137.636L141.876 153.508C141.876 153.508 122.744 139.6 117.124 135.008C116.944 134.856 94.8441 150.492 78.6841 153.508C66.2841 155.824 57.8841 151.148 53.0161 139.596L73.4921 130.536C90.6521 122.076 109.988 108.612 121.68 110.028C134.38 111.568 158.576 134.456 158.576 134.456Z" fill="#37474F"/>
<path d="M154.204 133.296C151.348 136.384 152.128 135.46 149.308 138.58C147.924 140.108 140.968 147.78 139.92 149.4C139.896 149.436 139.944 149.48 139.98 149.456C141.48 148.216 148.272 140.412 149.624 138.86C152.388 135.692 151.56 136.572 154.292 133.376C154.3 133.364 154.304 133.35 154.302 133.335C154.301 133.321 154.294 133.308 154.283 133.298C154.272 133.288 154.258 133.283 154.244 133.282C154.229 133.282 154.215 133.287 154.204 133.296Z" fill="#263238"/>
<path d="M153.576 140.16L141.888 153.512C141.888 153.512 122.744 139.6 117.124 135.008C116.944 134.856 94.8441 150.492 78.6881 153.512C66.2881 155.824 57.8681 151.148 53.0161 139.596L73.4921 130.532C75.7641 129.412 78.0721 128.208 80.4001 126.96C98.3801 130.236 137.784 137.324 153.576 140.16Z" fill="#263238"/>
<path d="M184.28 166.9C183.036 167.38 146.828 168.992 145.412 168.184C145.256 168.092 145.3 166.496 144.768 162.36C144.74 162.164 143.916 161.396 142.624 160.316C137.784 156.256 126.404 147.704 126.404 147.704L144.472 132L161.984 149.2L166.536 153.672C166.536 153.672 181.336 160.704 182.796 161.76C184.256 162.816 185.528 166.42 184.28 166.9Z" fill="#DD6A57"/>
<path d="M184.284 166.9C183.036 167.376 146.828 168.996 145.412 168.184C145.256 168.092 145.3 166.496 144.764 162.364C149.944 163.144 177.564 164.584 178.512 161.328C178.888 160.052 174.78 157.728 174.04 157.304C177.944 159.2 182.04 161.244 182.796 161.776C184.248 162.836 185.528 166.42 184.284 166.9Z" fill="#263238"/>
<path d="M173.088 156.932C171.616 156.132 170.152 155.332 168.656 154.612C167.946 154.301 167.285 153.889 166.692 153.388C166.08 152.832 165.492 152.236 164.904 151.664C162.476 149.348 160.056 147.02 157.608 144.72C156.284 143.476 154.976 142.22 153.664 140.964C153.632 140.932 153.576 140.964 153.604 141.012C153.684 141.136 155.892 143.496 156.952 144.564C158.152 145.764 159.352 146.944 160.552 148.124L164.152 151.644C164.756 152.236 165.352 152.82 165.972 153.404C166.509 153.942 167.133 154.387 167.816 154.72C169.532 155.52 171.276 156.276 173.016 157.024C173.1 157.048 173.148 156.964 173.088 156.932Z" fill="#263238"/>
<path d="M49.7 136C49.7 136 47.044 150.54 54.644 156.752C60.1 161.236 67.3 161.676 73.512 160.8C90.712 158.356 105.28 137.6 111 136.476C113.932 135.908 137 158.724 137 158.724L154.924 141.376C150.364 137.416 123.18 109.932 109.46 109.932C100.068 109.932 76.26 129.444 75.68 129.216C74.744 128.84 70.576 126.84 70.576 126.84L49.7 136Z" fill="#37474F"/>
<path d="M151.3 139.528C149.056 141.416 146.96 143.476 144.84 145.484C142.72 147.492 140.632 149.504 138.564 151.548C137.388 152.708 136.22 153.872 135.092 155.068C135.06 155.096 135.092 155.14 135.136 155.112C137.352 153.192 139.476 151.176 141.6 149.16C143.724 147.144 145.808 145.16 147.884 143.104C149.06 141.952 150.248 140.796 151.36 139.588C151.396 139.548 151.34 139.496 151.3 139.528Z" fill="#263238"/>
<path d="M63.9321 133.76C63.9001 133.68 63.7801 133.736 63.8001 133.812C64.3145 135.993 64.0455 138.286 63.0401 140.288C61.8761 142.508 59.7641 144.1 57.8881 145.68C57.7081 145.836 57.9361 146.12 58.1361 146.004C59.3521 145.292 60.4868 144.45 61.5201 143.492C62.4768 142.648 63.2513 141.618 63.7961 140.464C64.2833 139.418 64.5471 138.281 64.5705 137.127C64.5939 135.972 64.3765 134.826 63.9321 133.76Z" fill="#263238"/>
<path d="M76.016 130.668C75.488 130.268 74.928 129.92 74.388 129.544C73.108 128.66 71.82 127.776 70.504 126.944C70.38 126.868 70.232 127.064 70.352 127.156C71.28 127.86 72.236 128.524 73.184 129.196C73.672 129.544 74.156 129.888 74.648 130.228C75.1393 130.52 75.6002 130.86 76.024 131.244C76.424 131.664 76.196 132.184 75.696 132.376C75.2463 132.514 74.761 132.474 74.34 132.264C73.376 131.864 72.504 131.168 71.636 130.604C71.1027 130.255 70.5693 129.911 70.036 129.572C69.464 129.212 68.872 128.888 68.304 128.528C68.268 128.504 68.224 128.564 68.26 128.592C68.784 128.992 69.288 129.46 69.816 129.88C70.344 130.3 70.876 130.712 71.416 131.12C71.956 131.528 72.444 131.876 72.968 132.236C73.4142 132.558 73.91 132.806 74.436 132.968C75.288 133.196 76.584 132.94 76.716 131.884C76.7183 131.637 76.6546 131.394 76.5315 131.181C76.4085 130.967 76.2305 130.79 76.016 130.668Z" fill="#263238"/>
<path d="M153.74 140C152.608 138.836 151.416 137.728 150.236 136.616C149.056 135.504 147.884 134.412 146.692 133.328C144.292 131.148 141.872 128.992 139.396 126.904C136.92 124.816 134.368 122.804 131.756 120.884C129.144 118.964 126.52 117.18 123.756 115.544C122.376 114.724 120.956 113.944 119.528 113.208C118.127 112.468 116.689 111.8 115.22 111.208C114.82 111.06 114.42 110.912 114.02 110.748C113.96 110.724 113.908 110.812 113.968 110.836C114.704 111.168 115.412 111.56 116.132 111.92C116.852 112.28 117.544 112.644 118.244 113.012C119.652 113.76 121.044 114.54 122.42 115.356C125.177 116.996 127.864 118.751 130.48 120.62C133.1 122.492 135.64 124.468 138.116 126.52C140.592 128.572 143.072 130.696 145.488 132.856C147.904 135.016 150.268 137.184 152.688 139.332C152.992 139.6 153.296 139.868 153.608 140.132C153.626 140.14 153.647 140.143 153.667 140.139C153.687 140.136 153.705 140.126 153.719 140.112C153.734 140.097 153.743 140.079 153.747 140.059C153.751 140.039 153.748 140.019 153.74 140Z" fill="#263238"/>
<path d="M136.076 152.756C130.552 147.5 115.592 134.112 112.204 131.872C111.863 131.65 111.479 131.499 111.078 131.431C110.676 131.362 110.264 131.376 109.868 131.472C108.996 131.688 108.296 132.336 107.608 132.88L105.148 134.828L100.096 138.828C96.9403 141.336 93.8043 143.868 90.6163 146.332C87.8013 148.577 84.8208 150.605 81.7003 152.4C75.7003 155.736 68.1003 157.868 61.4963 154.988C58.488 153.648 56.0708 151.257 54.6963 148.264C53.2683 145.284 52.6643 141.972 52.2963 138.712C52.2083 137.912 52.1363 137.132 52.0723 136.34C52.074 136.336 52.0747 136.33 52.074 136.325C52.0734 136.32 52.0715 136.315 52.0685 136.311C52.0656 136.307 52.0617 136.303 52.0571 136.301C52.0525 136.298 52.0474 136.297 52.0423 136.297C52.0371 136.297 52.032 136.298 52.0274 136.301C52.0229 136.303 52.0189 136.307 52.016 136.311C52.013 136.315 52.0112 136.32 52.0105 136.325C52.0099 136.33 52.0105 136.336 52.0123 136.34C52.3203 142.488 53.2923 149.62 58.4963 153.664C64.0283 157.96 71.8083 157.212 77.9203 154.704C84.7723 151.904 90.5163 146.976 96.2523 142.416L106.28 134.448C107.08 133.804 107.88 133.132 108.716 132.516C109.552 131.9 110.532 131.44 111.488 131.996C114.656 133.84 135.196 152.228 135.924 152.868C136.036 152.964 136.164 152.836 136.076 152.756Z" fill="#263238"/>
<path d="M68.3241 104.76C72.0081 106.996 90.6161 117.26 96.6921 114.188C104.056 110.46 111.832 103.264 114.456 98.9321C115.924 96.5041 103.776 89.5401 102.18 91.5521C99.6681 94.7521 93.1441 100.648 91.9601 101.552C90.7761 102.456 77.9281 99.6961 70.7401 99.2081C64.2641 98.7561 65.7281 103.2 68.3241 104.76Z" fill="#DD6A57"/>
<path d="M118.684 93.1999C117.58 95.9759 113.084 100.768 111.568 101.508C110.052 102.248 101.64 94.8959 101.748 93.1599C101.856 91.4239 106.3 82.3599 108.948 80.8559C111.596 79.3519 119.832 90.3079 118.684 93.1999Z" fill="#DD6A57"/>
<path d="M102.232 91.4679C102.232 91.4679 102.276 87.5799 101.168 84.3399C100.24 81.6119 98.5481 77.6719 99.9961 77.1159C102.964 75.9759 107.176 85.8079 107.176 85.8079C107.176 85.8079 108.336 90.4439 105.496 91.8319C104.971 92.078 104.389 92.1742 103.813 92.11C103.237 92.0458 102.69 91.8236 102.232 91.4679Z" fill="#DD6A57"/>
<path d="M105.34 83.9761C105.6 85.5401 107.292 84.3401 107.292 84.3401C107.292 84.3401 105.272 86.6521 106.16 88.1601C107.024 89.6081 109.016 88.0881 109.16 87.9801C109.056 88.1041 107.256 90.2801 108.304 91.7001C109.352 93.1201 111.136 91.3001 111.248 91.1881C111.184 91.3361 110.38 93.3041 111.424 94.2041C113.22 95.7441 115.424 90.7681 117.228 90.1521C117.228 90.1521 118.628 93.1041 118.684 93.1841C118.684 93.1841 120.868 88.4921 119.884 86.0881C119.748 85.7371 119.496 85.4431 119.171 85.2547C118.845 85.0662 118.464 84.9948 118.092 85.0521C118.092 85.0521 118.964 83.6161 118.172 82.4681C117.772 81.8841 116.46 82.0121 116.46 82.0121C116.46 82.0121 117.112 80.8361 116.344 79.8601C115.732 79.0601 114.524 79.3321 114.524 79.3321C114.524 79.3321 114.62 77.9121 113.724 77.3321C111.976 76.1121 104.784 80.6321 105.34 83.9761Z" fill="#DD6A57"/>
<path d="M114.34 79.3403C114.345 79.3403 114.35 79.3382 114.354 79.3344C114.358 79.3307 114.36 79.3256 114.36 79.3203C114.36 79.315 114.358 79.3099 114.354 79.3062C114.35 79.3024 114.345 79.3003 114.34 79.3003C111.495 80.2349 109.001 82.0138 107.192 84.4003C107.136 84.4803 107.236 84.6043 107.316 84.5283C109.394 82.4685 111.76 80.721 114.34 79.3403Z" fill="#263238"/>
<path d="M116.5 81.9764C116.528 81.9764 116.5 81.9124 116.472 81.9244C113.672 82.8764 110.66 85.0244 109.036 87.9644C108.98 88.0644 109.036 88.2124 109.104 88.1004C110.336 86.2284 114.064 83.2324 116.5 81.9764Z" fill="#263238"/>
<path d="M111.204 91.4324C112.872 88.6724 115.256 86.7284 118.004 85.0844C118.04 85.0604 118.004 85.0124 117.972 85.0244C116.416 85.4644 114.772 86.6964 113.592 87.7604C112.47 88.7247 111.619 89.9657 111.124 91.3604C111.088 91.4284 111.172 91.4884 111.204 91.4324Z" fill="#263238"/>
<path d="M107.236 84.3403C107.172 84.4323 107.38 84.4283 107.316 84.5203C107.048 84.9203 105.652 87.4523 106.368 88.1963C106.94 88.7923 108.14 88.4323 108.544 88.1163L109.568 87.3163L108.888 88.4243C108.579 88.9172 108.353 89.4578 108.22 90.0243C108.144 90.2809 108.122 90.5507 108.157 90.8161C108.193 91.0815 108.283 91.3365 108.424 91.5643C108.556 91.771 108.754 91.9267 108.986 92.0059C109.218 92.0852 109.469 92.0832 109.7 92.0003C110.219 91.7984 110.678 91.4665 111.032 91.0363L112.052 89.8843L111.468 91.3003C111.305 91.6938 111.194 92.1065 111.136 92.5283C111.061 92.933 111.109 93.3507 111.272 93.7283C111.352 93.8924 111.475 94.0309 111.629 94.1284C111.784 94.2259 111.962 94.2785 112.144 94.2803C112.55 94.221 112.931 94.0491 113.244 93.7843C113.929 93.2155 114.57 92.595 115.16 91.9283C115.472 91.6003 115.78 91.2723 116.108 90.9563C116.417 90.6236 116.793 90.3604 117.212 90.1843C116.821 90.402 116.475 90.6942 116.196 91.0443C115.9 91.3803 115.616 91.7283 115.332 92.0763C114.776 92.7987 114.155 93.4682 113.476 94.0763C113.112 94.41 112.659 94.631 112.172 94.7123C111.902 94.7267 111.633 94.6622 111.398 94.5265C111.164 94.3909 110.974 94.19 110.852 93.9483C110.639 93.4945 110.567 92.9875 110.644 92.4923C110.701 92.0203 110.82 91.5578 110.996 91.1163L111.432 91.3803C111.021 91.8963 110.482 92.295 109.868 92.5363C109.525 92.6624 109.148 92.6624 108.804 92.5363C108.47 92.4051 108.183 92.1766 107.98 91.8803C107.802 91.5921 107.688 91.2695 107.644 90.9337C107.599 90.598 107.627 90.2567 107.724 89.9323C107.881 89.3162 108.138 88.7299 108.484 88.1963L108.824 88.5043C108.296 88.9043 107 89.4403 105.992 88.6283C104.852 87.3443 106.84 84.8003 107.236 84.3403Z" fill="#263238"/>
<path d="M107.3 84.3399C107.002 84.4721 106.685 84.5584 106.36 84.5959C106.231 84.6153 106.099 84.5995 105.978 84.5502C105.857 84.501 105.751 84.42 105.672 84.3159C105.533 84.0615 105.468 83.7733 105.484 83.4839C105.484 83.1639 105.512 82.8319 105.548 82.4839C105.349 82.7753 105.213 83.1049 105.148 83.4519C105.102 83.6407 105.093 83.8368 105.123 84.029C105.152 84.2213 105.219 84.4057 105.32 84.5719C105.45 84.7431 105.629 84.8713 105.832 84.9399C106.027 84.9939 106.233 84.9939 106.428 84.9399C106.775 84.8365 107.08 84.6266 107.3 84.3399Z" fill="#263238"/>
<path d="M90.5603 101.32L85.7603 113.64C85.7603 113.64 74.5003 109.392 69.0843 105.976C63.6683 102.56 63.2723 99.0122 71.2843 99.0122C76.3563 99.0122 90.5603 101.32 90.5603 101.32Z" fill="#00DDB5"/>
<path d="M65.8683 101.432L65.5763 101.792L65.6003 102.256L65.2443 102.12C65.1128 101.759 65.1015 101.364 65.2123 100.996L65.4203 101.316L65.8683 101.432Z" fill="#00DDB5"/>
<path d="M73.6203 101.432L73.3283 101.792L73.3523 102.256L72.9163 102.092L72.4843 102.256L72.5083 101.792L72.2163 101.432L72.6643 101.316L72.9163 100.924L73.1723 101.316L73.6203 101.432Z" fill="#00DDB5"/>
<path d="M77.4923 107.036L77.2003 107.396L77.2243 107.86L76.7923 107.696L76.3603 107.86L76.3843 107.396L76.0923 107.036L76.5403 106.92L76.7923 106.528L77.0443 106.92L77.4923 107.036Z" fill="#00DDB5"/>
<path d="M81.3683 101.432L81.0763 101.792L81.1003 102.256L80.6683 102.092L80.2363 102.256L80.2603 101.792L79.9683 101.432L80.4163 101.316L80.6683 100.924L80.9203 101.316L81.3683 101.432Z" fill="#00DDB5"/>
<path d="M85.2442 107.036L84.9522 107.396L84.9762 107.86L84.5442 107.696L84.1082 107.86L84.1362 107.396L83.8442 107.036L84.2922 106.92L84.5442 106.528L84.7962 106.92L85.2442 107.036Z" fill="#00DDB5"/>
<path d="M88.8243 101.792L88.8523 102.256L88.4163 102.092L87.9843 102.256L88.0083 101.792L87.7163 101.432L88.1643 101.316L88.3763 100.988H88.4683L88.6723 101.304L89.1203 101.42L88.8243 101.792Z" fill="#00DDB5"/>
<g opacity="0.2">
<path opacity="0.2" d="M65.5763 101.792L65.6003 102.256L65.2443 102.12C65.1147 101.757 65.1035 101.362 65.2123 100.992L65.4203 101.312L65.8683 101.428L65.5763 101.792Z" fill="black"/>
<path opacity="0.2" d="M73.3283 101.792L73.3523 102.256L72.9163 102.092L72.4843 102.256L72.5083 101.792L72.2163 101.432L72.6643 101.316L72.9163 100.924L73.1723 101.316L73.6203 101.432L73.3283 101.792Z" fill="black"/>
<path opacity="0.2" d="M81.0763 101.792L81.1003 102.256L80.6683 102.092L80.2363 102.256L80.2603 101.792L79.9683 101.432L80.4163 101.316L80.6683 100.924L80.9203 101.316L81.3683 101.432L81.0763 101.792Z" fill="black"/>
<path opacity="0.2" d="M88.8243 101.792L88.8523 102.256L88.4163 102.092L87.9843 102.256L88.0083 101.792L87.7163 101.432L88.1643 101.316L88.3763 100.988H88.4563L88.6603 101.304L89.1083 101.42L88.8243 101.792Z" fill="black"/>
<path opacity="0.2" d="M77.2003 107.396L77.2243 107.86L76.7923 107.696L76.3603 107.86L76.3843 107.396L76.0923 107.036L76.5403 106.92L76.7923 106.528L77.0443 106.92L77.4923 107.036L77.2003 107.396Z" fill="black"/>
<path opacity="0.2" d="M84.9522 107.396L84.9762 107.86L84.5442 107.696L84.1082 107.86L84.1362 107.396L83.8442 107.036L84.2922 106.92L84.5442 106.528L84.7962 106.92L85.2442 107.036L84.9522 107.396Z" fill="black"/>
</g>
<path d="M83.7642 111.928C84.5642 110.268 85.2362 108.524 85.8922 106.796C86.5482 105.068 87.1482 103.352 87.6642 101.596C87.6642 101.564 87.6202 101.54 87.6082 101.576C86.8802 103.276 86.2122 105.004 85.5642 106.736C84.9162 108.468 84.2482 110.16 83.7002 111.908C83.7002 111.944 83.7482 111.964 83.7642 111.928Z" fill="#263238"/>
<path opacity="0.1" d="M87.1119 110.144L85.7439 113.64C85.7439 113.64 74.4999 109.392 69.0839 105.976C65.6039 103.772 64.1959 101.516 65.7839 100.192L87.1119 110.144Z" fill="black"/>
<path d="M77.8123 123.54L78.9563 127.728C78.9563 127.728 48.5563 150.948 47.1763 150.204C47.1763 150.204 51.6803 109.64 59.4683 101.588C63.3643 97.5603 67.8123 97.9883 70.5803 100.924C71.3003 101.672 78.9003 111.2 79.7003 115.556C80.3883 119.396 77.8123 123.54 77.8123 123.54Z" fill="#00DDB5"/>
<path d="M77.2481 110.084C76.7841 109.228 76.2921 108.4 75.7641 107.58C75.6416 107.273 75.5 106.974 75.3401 106.684C75.1241 106.256 74.9121 105.832 74.7241 105.392C74.7236 105.387 74.722 105.382 74.7193 105.378C74.7166 105.374 74.7129 105.37 74.7086 105.367C74.7042 105.365 74.6994 105.363 74.6943 105.363C74.6893 105.363 74.6843 105.364 74.6796 105.366C74.675 105.368 74.6709 105.371 74.6677 105.374C74.6644 105.378 74.6622 105.383 74.661 105.388C74.6599 105.393 74.66 105.398 74.6612 105.403C74.6624 105.408 74.6648 105.412 74.6681 105.416C74.8681 105.852 75.0681 106.292 75.2201 106.736C75.2311 106.759 75.2405 106.783 75.2481 106.808C75.0521 106.532 74.8481 106.256 74.6521 105.984C74.3482 105.547 74.0225 105.125 73.6761 104.72C73.6561 104.7 73.6281 104.72 73.6401 104.748C73.8961 105.208 74.2161 105.636 74.5001 106.076C74.7841 106.516 75.0881 106.996 75.3881 107.448C75.9841 108.344 76.5881 109.228 77.1961 110.116C77.1973 110.121 77.1997 110.125 77.203 110.129C77.2063 110.133 77.2104 110.136 77.2151 110.138C77.2197 110.14 77.2248 110.14 77.2298 110.14C77.2348 110.14 77.2396 110.138 77.2439 110.135C77.2482 110.133 77.2518 110.129 77.2544 110.125C77.257 110.121 77.2586 110.116 77.259 110.111C77.2594 110.106 77.2587 110.101 77.2568 110.096C77.2549 110.091 77.2519 110.087 77.2481 110.084Z" fill="#263238"/>
<g opacity="0.2">
<path opacity="0.2" d="M65.1683 100.924L65.4203 101.312L65.8683 101.432L65.5763 101.796L65.6003 102.256L65.1683 102.092L64.7363 102.256L64.7603 101.796L64.4683 101.432L64.9163 101.312L65.1683 100.924Z" fill="black"/>
<path opacity="0.2" d="M57.4163 111.968L57.6723 112.36L58.1203 112.48L57.8243 112.84L57.8523 113.3L57.4163 113.136L56.9843 113.3L57.0083 112.84L56.7163 112.48L57.1643 112.36L57.4163 111.968Z" fill="black"/>
<path opacity="0.2" d="M65.1683 111.968L65.4203 112.36L65.8683 112.48L65.5763 112.84L65.6003 113.3L65.1683 113.136L64.7363 113.3L64.7603 112.84L64.4683 112.48L64.9163 112.36L65.1683 111.968Z" fill="black"/>
<path opacity="0.2" d="M72.9163 111.968L73.1723 112.36L73.6203 112.48L73.3243 112.84L73.3523 113.3L72.9163 113.136L72.4843 113.3L72.5083 112.84L72.2163 112.48L72.6643 112.36L72.9163 111.968Z" fill="black"/>
<path opacity="0.2" d="M61.2923 106.528L61.5443 106.92L61.9923 107.036L61.7003 107.4L61.7243 107.86L61.2923 107.696L60.8603 107.86L60.8843 107.4L60.5923 107.036L61.0403 106.92L61.2923 106.528Z" fill="black"/>
<path opacity="0.2" d="M69.0443 106.528L69.2963 106.92L69.7443 107.036L69.4523 107.4L69.4763 107.86L69.0443 107.696L68.6083 107.86L68.6363 107.4L68.3403 107.036L68.7923 106.92L69.0443 106.528Z" fill="black"/>
<path opacity="0.2" d="M57.4163 123.016L57.6723 123.404L58.1203 123.524L57.8243 123.884L57.8523 124.348L57.4163 124.18L56.9843 124.348L57.0083 123.884L56.7163 123.524L57.1643 123.404L57.4163 123.016Z" fill="black"/>
<path opacity="0.2" d="M65.1683 123.016L65.4203 123.404L65.8683 123.524L65.5763 123.884L65.6003 124.348L65.1683 124.18L64.7363 124.348L64.7603 123.884L64.4683 123.524L64.9163 123.404L65.1683 123.016Z" fill="black"/>
<path opacity="0.2" d="M72.9163 123.016L73.1723 123.404L73.6203 123.524L73.3243 123.884L73.3523 124.348L72.9163 124.18L72.4843 124.348L72.5083 123.884L72.2163 123.524L72.6643 123.404L72.9163 123.016Z" fill="black"/>
<path opacity="0.2" d="M53.5442 117.572L53.7962 117.964L54.2442 118.084L53.9522 118.444L53.9762 118.904L53.5442 118.74L53.1122 118.904L53.1362 118.444L52.8442 118.084L53.2922 117.964L53.5442 117.572Z" fill="black"/>
<path opacity="0.2" d="M61.2923 117.572L61.5443 117.964L61.9923 118.084L61.7003 118.444L61.7243 118.904L61.2923 118.74L60.8603 118.904L60.8843 118.444L60.5923 118.084L61.0403 117.964L61.2923 117.572Z" fill="black"/>
<path opacity="0.2" d="M69.0443 117.572L69.2963 117.964L69.7443 118.084L69.4523 118.444L69.4763 118.904L69.0443 118.74L68.6083 118.904L68.6363 118.444L68.3403 118.084L68.7923 117.964L69.0443 117.572Z" fill="black"/>
<path opacity="0.2" d="M76.7923 117.572L77.0443 117.964L77.4923 118.084L77.2003 118.444L77.2243 118.904L76.7923 118.74L76.3603 118.904L76.3843 118.444L76.0923 118.084L76.5403 117.964L76.7923 117.572Z" fill="black"/>
<path opacity="0.2" d="M50.0761 134.928L50.1001 135.392L49.6681 135.224L49.2681 135.38C49.3161 135.072 49.3681 134.76 49.4201 134.448L49.6681 134.048L49.9201 134.448L50.3681 134.568L50.0761 134.928Z" fill="black"/>
<path opacity="0.2" d="M57.4163 134.061L57.6723 134.449L58.1203 134.569L57.8243 134.929L57.8523 135.393L57.4163 135.225L56.9843 135.393L57.0083 134.929L56.7163 134.569L57.1643 134.449L57.4163 134.061Z" fill="black"/>
<path opacity="0.2" d="M65.1683 134.061L65.4203 134.449L65.8683 134.569L65.5763 134.929L65.6003 135.393L65.1683 135.225L64.7363 135.393L64.7603 134.929L64.4683 134.569L64.9163 134.449L65.1683 134.061Z" fill="black"/>
<path opacity="0.2" d="M53.5442 128.62L53.7962 129.008L54.2442 129.128L53.9522 129.488L53.9762 129.952L53.5442 129.784L53.1122 129.952L53.1362 129.488L52.8442 129.128L53.2922 129.008L53.5442 128.62Z" fill="black"/>
<path opacity="0.2" d="M61.2923 128.62L61.5443 129.008L61.9923 129.128L61.7003 129.488L61.7243 129.952L61.2923 129.784L60.8603 129.952L60.8843 129.488L60.5923 129.128L61.0403 129.008L61.2923 128.62Z" fill="black"/>
<path opacity="0.2" d="M69.0443 128.62L69.2963 129.008L69.7443 129.128L69.4523 129.488L69.4763 129.952L69.0443 129.784L68.6083 129.952L68.6363 129.488L68.3403 129.128L68.7923 129.008L69.0443 128.62Z" fill="black"/>
<path opacity="0.2" d="M76.3721 129.688V129.488L76.0801 129.128L76.5281 129.008L76.7801 128.608L77.0321 129.008L77.2041 129.052L76.3721 129.688Z" fill="black"/>
<path opacity="0.2" d="M49.6683 145.104L49.9203 145.492L50.3683 145.612L50.0763 145.972L50.1003 146.436L49.6683 146.268L49.2363 146.436L49.2603 145.972L48.9683 145.612L49.4163 145.492L49.6683 145.104Z" fill="black"/>
<path opacity="0.2" d="M53.5442 139.665L53.7962 140.053L54.2442 140.173L53.9522 140.533L53.9762 140.997L53.5442 140.829L53.1122 140.997L53.1362 140.533L52.8442 140.173L53.2922 140.053L53.5442 139.665Z" fill="black"/>
<path opacity="0.2" d="M61.7004 140.532V140.62L61.3724 140.86L61.2884 140.828L60.8564 140.996L60.8804 140.532L60.5884 140.172L61.0364 140.052L61.2884 139.652L61.5404 140.052L61.9884 140.172L61.7004 140.532Z" fill="black"/>
</g>
<path d="M58.9 102.364C48.176 113.528 32.54 141.796 30.608 145.848C29.296 148.6 43.68 155.848 44.292 153.848C45.092 151.288 57.604 119.652 60.932 107.716C62.776 101.136 61.12 100.06 58.9 102.364Z" fill="#DD6A57"/>
<path d="M44.9761 151.964C44.4761 153.332 42.7681 159.164 41.5721 159.88C40.3761 160.596 34.1001 160.448 30.9481 160.448C27.7961 160.448 27.1681 159.568 27.2201 158.48C27.2721 157.392 33.9001 157.2 33.9001 157.2C33.9001 157.2 25.0481 159.74 22.8201 160.152C20.5921 160.564 15.4601 161.864 14.7201 160.016C14.3841 159.184 15.7881 158.34 15.7881 158.34C15.7881 158.34 13.6361 158.968 13.2921 157.9C12.8921 156.7 14.6161 156.008 14.6161 156.008C14.6161 156.008 13.2681 156.28 13.2401 155.288C13.1681 153.068 21.5921 151.98 21.5921 151.98C21.5921 151.98 15.1441 155.116 14.9361 153.308C14.6481 150.8 27.8641 148.052 29.2401 146.96C30.139 146.198 30.8867 145.274 31.4441 144.236L44.9761 151.964Z" fill="#DD6A57"/>
<path d="M27.2682 159.032C27.2462 158.877 27.262 158.719 27.3142 158.571C27.3665 158.424 27.4536 158.291 27.5682 158.184C27.794 157.975 28.0537 157.806 28.3362 157.684C28.9214 157.435 29.5278 157.24 30.1482 157.1C31.3922 156.78 32.6682 156.56 33.9402 156.228C32.6269 156.21 31.3166 156.358 30.0402 156.668C29.389 156.818 28.7617 157.058 28.1762 157.38C27.8756 157.549 27.6118 157.776 27.4002 158.048C27.2955 158.187 27.2284 158.35 27.2053 158.523C27.1822 158.695 27.2038 158.87 27.2682 159.032Z" fill="#263238"/>
<path d="M15.7881 158.324C16.7001 158.1 17.5961 157.844 18.4961 157.584C19.3961 157.324 20.2801 157.052 21.1761 156.784L23.8401 155.948C24.7321 155.668 25.6201 155.392 26.5161 155.124C25.5854 155.223 24.6621 155.382 23.7521 155.6C22.8361 155.808 21.9401 156.072 21.0441 156.344C20.1481 156.616 19.2641 156.916 18.3881 157.248C17.5121 157.58 16.6401 157.928 15.7881 158.324Z" fill="#263238"/>
<path d="M24.3799 152.912C23.5205 152.967 22.6663 153.085 21.8239 153.264C20.9799 153.435 20.1454 153.65 19.3239 153.908C18.4995 154.159 17.6901 154.457 16.8999 154.8C16.1081 155.145 15.3421 155.546 14.6079 156C15.4079 155.72 16.2079 155.408 17.0079 155.136C17.8079 154.864 18.6079 154.588 19.4359 154.336C20.2639 154.084 21.0639 153.84 21.8799 153.6C22.6959 153.36 23.5479 153.136 24.3799 152.912Z" fill="#263238"/>
<path d="M23.0761 150.8C21.6895 150.905 20.323 151.193 19.0121 151.656C17.6897 152.093 16.4307 152.702 15.2681 153.468C16.5801 153 17.8521 152.508 19.1521 152.076C20.4521 151.644 21.7561 151.224 23.0761 150.8Z" fill="#263238"/>
<path d="M44.1001 120.264L56.0201 124.432C56.0201 124.432 60.6881 112.664 61.7161 106.36C62.7441 100.056 61.5521 98.6959 56.1161 104.572C50.6801 110.448 44.1001 120.264 44.1001 120.264Z" fill="#00DDB5"/>
<g opacity="0.2">
<path opacity="0.2" d="M50.0763 112.84L50.1003 113.3L49.6683 113.136L49.2363 113.3V113.032C49.4283 112.772 49.6363 112.508 49.8243 112.232L49.9043 112.36L50.3523 112.48L50.0763 112.84Z" fill="black"/>
<path opacity="0.2" d="M57.4163 111.968L57.6723 112.36L58.1203 112.48L57.8243 112.84L57.8523 113.3L57.4163 113.136L56.9843 113.3L57.0083 112.84L56.7163 112.48L57.1643 112.36L57.4163 111.968Z" fill="black"/>
<path opacity="0.2" d="M53.9523 107.396L53.9763 107.86L53.5443 107.696L53.3403 107.772L54.0043 106.972L54.2443 107.036L53.9523 107.396Z" fill="black"/>
<path opacity="0.2" d="M61.6243 106.94C61.5763 107.204 61.5203 107.48 61.4603 107.74L61.2923 107.676L60.8603 107.84L60.8843 107.376L60.5923 107.016L61.0403 106.9L61.2923 106.5L61.5443 106.9L61.6243 106.94Z" fill="black"/>
<path opacity="0.2" d="M46.2004 118.444L46.2244 118.904L45.7924 118.74L45.3604 118.904L45.3844 118.444V118.424C45.5444 118.2 45.7124 117.956 45.8924 117.7L46.0604 117.964L46.5084 118.084L46.2004 118.444Z" fill="black"/>
<path opacity="0.2" d="M53.5442 117.572L53.7962 117.964L54.2442 118.084L53.9522 118.444L53.9762 118.904L53.5442 118.74L53.1122 118.904L53.1362 118.444L52.8442 118.084L53.2922 117.964L53.5442 117.572Z" fill="black"/>
</g>
<path d="M60.8081 112.9C60.3074 113.723 59.8508 114.573 59.4401 115.444C59.5641 115.044 59.6881 114.62 59.8081 114.212C60.1041 113.2 60.4081 112.18 60.6441 111.152C60.6422 111.148 60.6391 111.144 60.6352 111.142C60.6313 111.139 60.6268 111.138 60.6221 111.138C60.6174 111.138 60.6128 111.139 60.6089 111.142C60.605 111.144 60.602 111.148 60.6001 111.152C59.9521 112.876 59.4001 114.636 58.7761 116.376C58.1521 118.116 57.5481 119.844 56.9441 121.576C56.6121 122.524 56.3041 123.476 56.0121 124.436L55.4121 124.224C55.3721 124.2 55.3601 124.268 55.4121 124.276L56.1321 124.588C56.1561 124.588 58.3281 119.072 59.1961 116.252C59.8001 115.172 60.3521 114.06 60.8641 112.936C60.8665 112.932 60.8681 112.928 60.8688 112.924C60.8696 112.92 60.8695 112.915 60.8686 112.911C60.8677 112.907 60.8659 112.903 60.8634 112.899C60.8609 112.896 60.8578 112.892 60.8541 112.89C60.8504 112.888 60.8463 112.886 60.842 112.885C60.8377 112.885 60.8333 112.885 60.829 112.886C60.8248 112.886 60.8207 112.888 60.8171 112.891C60.8135 112.893 60.8105 112.896 60.8081 112.9Z" fill="#263238"/>
<path d="M56.5004 122.332C54.8284 121.532 53.0764 120.912 51.3404 120.28C49.6044 119.648 47.8764 119.08 46.1124 118.58C46.0764 118.58 46.0604 118.628 46.1124 118.64C47.8244 119.344 49.5604 119.984 51.3124 120.608C53.0644 121.232 54.7524 121.876 56.5124 122.396C56.5179 122.392 56.5222 122.387 56.5247 122.38C56.5272 122.374 56.5279 122.367 56.5267 122.36C56.5254 122.354 56.5223 122.347 56.5176 122.342C56.513 122.337 56.507 122.334 56.5004 122.332Z" fill="#263238"/>
<path d="M64.8281 98.8001C61.0721 99.1761 62.0761 102.96 63.7321 104.692C64.8361 105.852 67.0721 107.02 68.3561 106.56C69.6401 106.1 68.6281 103.228 68.6281 103.228C68.6281 103.228 70.7441 105.284 71.5281 104.396C72.3121 103.508 68.7161 98.4001 64.8281 98.8001Z" fill="#263238"/>
<path d="M62.8762 100.764C63.0882 101.3 65.9522 103.46 68.4762 102.976C69.2762 102.816 68.9162 99.3559 68.9162 99.3559L68.9442 99.0119L69.3083 94.2119L63.3082 91.496L62.4482 91.1479C62.4482 91.1479 62.4482 92.4719 62.4482 94.1159V94.3519C62.4482 94.4439 62.4482 94.5319 62.4482 94.6199C62.4482 94.8639 62.4482 95.1159 62.4482 95.3679C62.4482 95.5559 62.4482 95.7439 62.4482 95.9439C62.4482 96.1439 62.4482 96.3439 62.4482 96.5399C62.4969 97.9559 62.6399 99.367 62.8762 100.764Z" fill="#DD6A57"/>
<path d="M62.44 94.108C63.1003 95.3484 64.0233 96.4298 65.1446 97.2768C66.2658 98.1237 67.5584 98.7159 68.932 99.0119L69.296 94.2119L63.296 91.496L62.436 91.1479C62.436 91.1479 62.44 92.464 62.44 94.108Z" fill="#263238"/>
<path d="M75.2322 86.292C76.7602 94.62 71.9442 96.472 70.1482 96.8C68.5162 97.096 62.9282 97.904 60.5482 89.776C58.1682 81.648 61.5562 78.312 65.2482 77.436C68.9402 76.56 73.7002 77.964 75.2322 86.292Z" fill="#DD6A57"/>
<path d="M72.536 84.3159C72.336 84.3159 72.136 84.2839 71.952 84.2679C71.7447 84.2778 71.5398 84.2203 71.368 84.1039C71.322 84.0563 71.2929 83.995 71.2849 83.9293C71.277 83.8636 71.2907 83.7971 71.324 83.7399C71.4068 83.6357 71.5165 83.556 71.6413 83.5095C71.766 83.463 71.9011 83.4514 72.032 83.4759C72.3044 83.4795 72.5656 83.5851 72.764 83.7719C72.8062 83.8176 72.8345 83.8744 72.8453 83.9356C72.8561 83.9969 72.8491 84.0599 72.8251 84.1173C72.801 84.1747 72.761 84.2239 72.7097 84.2591C72.6584 84.2943 72.5981 84.3141 72.536 84.3159Z" fill="#263238"/>
<path d="M66.8123 85.3159C67.001 85.2621 67.1866 85.198 67.3682 85.1239C67.5715 85.0851 67.7559 84.9795 67.8922 84.8239C67.9269 84.7671 67.9414 84.7003 67.9334 84.6343C67.9254 84.5682 67.8954 84.5068 67.8482 84.4599C67.7419 84.3799 67.616 84.3299 67.4837 84.3151C67.3515 84.3004 67.2176 84.3213 67.0962 84.3759C66.833 84.4488 66.6063 84.617 66.4603 84.8479C66.4299 84.902 66.416 84.9638 66.4202 85.0257C66.4243 85.0877 66.4464 85.147 66.4837 85.1966C66.521 85.2462 66.5719 85.2839 66.6303 85.3051C66.6886 85.3263 66.7518 85.33 66.8123 85.3159Z" fill="#263238"/>
<path d="M68.38 87.3281C68.38 87.3281 68.34 87.3601 68.344 87.3841C68.448 87.9521 68.468 88.6201 67.98 88.8841C67.98 88.8841 67.98 88.9201 67.98 88.9161C68.608 88.7321 68.568 87.8481 68.38 87.3281Z" fill="#263238"/>
<path d="M67.7841 86.8002C66.8561 86.8682 67.0561 88.7162 67.9161 88.6562C68.7761 88.5962 68.5601 86.7522 67.7841 86.8002Z" fill="#263238"/>
<path d="M67.4279 86.944C67.2799 87.068 67.1399 87.268 66.9479 87.308C66.7559 87.348 66.5479 87.18 66.3679 87.012C66.3679 86.992 66.3359 87.012 66.3359 87.036C66.3719 87.392 66.5479 87.74 66.9319 87.752C67.3159 87.764 67.4999 87.42 67.5479 87.056C67.5599 86.988 67.4919 86.896 67.4279 86.944Z" fill="#263238"/>
<path d="M71.7001 86.6681C71.7001 86.6441 71.7481 86.6881 71.7521 86.7121C71.7921 87.2881 71.9321 87.9401 72.4721 88.0761V88.1121C71.8161 88.0841 71.6361 87.2001 71.7001 86.6681Z" fill="#263238"/>
<path d="M72.1402 86.0001C73.0562 85.8361 73.3162 87.6801 72.4682 87.8321C71.6202 87.9841 71.3722 86.1521 72.1402 86.0001Z" fill="#263238"/>
<path d="M72.5401 86.0843C72.7001 86.1603 72.8721 86.3163 73.0441 86.3043C73.2161 86.2923 73.3721 86.0683 73.4721 85.8603C73.4721 85.8363 73.5001 85.8603 73.5041 85.8603C73.5641 86.2083 73.5041 86.5923 73.1681 86.7083C72.8321 86.8243 72.6001 86.5443 72.4681 86.2043C72.4401 86.1563 72.4761 86.0523 72.5401 86.0843Z" fill="#263238"/>
<path d="M71.196 89.3481C71.196 89.3481 71.416 90.1881 71.464 90.5921C71.464 90.6281 71.372 90.6601 71.236 90.6841C70.8978 90.79 70.537 90.8005 70.1933 90.7144C69.8495 90.6283 69.5362 90.4489 69.288 90.1961C69.252 90.1601 69.288 90.1121 69.34 90.1321C69.8971 90.4211 70.5327 90.5222 71.152 90.4201C71.152 90.3081 70.724 88.9961 70.784 88.9841C71.1016 88.971 71.4195 89.0033 71.728 89.0801C71.328 87.3161 70.624 85.6321 70.244 83.8801C70.244 83.8161 70.32 83.7881 70.344 83.8401C71.192 85.5561 71.712 87.5761 72.18 89.3841C72.232 89.6001 71.364 89.3961 71.196 89.3481Z" fill="#263238"/>
<path d="M71.1962 90.4002C71.0296 90.768 70.7705 91.0864 70.4442 91.3242C70.2619 91.4457 70.0473 91.5098 69.8282 91.5082C69.3482 91.5082 69.2402 91.0802 69.2402 90.7082C69.2427 90.5086 69.2682 90.31 69.3162 90.1162C69.8965 90.4092 70.5553 90.5087 71.1962 90.4002Z" fill="#263238"/>
<path d="M70.4442 91.3359C70.2619 91.4574 70.0473 91.5215 69.8282 91.5199C69.3482 91.5199 69.2402 91.0919 69.2402 90.7199C69.4809 90.6724 69.7306 90.7073 69.9491 90.8191C70.1675 90.9308 70.3419 91.1129 70.4442 91.3359Z" fill="#FF9ABB"/>
<path d="M61.1441 89.3361C63.1681 89.1081 63.2881 82.8201 63.2921 82.0481C63.3121 82.5361 63.4361 85.1121 63.6401 85.2001C63.8576 85.1789 64.07 85.1207 64.2681 85.0281C64.2421 84.7207 64.2421 84.4116 64.2681 84.1041C64.2681 83.9601 64.3441 84.4081 64.4641 84.9601L64.8321 84.8241C64.7582 84.1691 64.773 83.5072 64.8761 82.8561C64.9161 82.6081 65.0641 83.6961 65.3721 84.6321C67.0657 83.9947 68.8242 83.5453 70.6161 83.2921C71.1201 83.2361 71.5601 83.2081 71.9481 83.2001C71.8921 82.4401 71.7441 81.6361 71.8121 81.8081C71.9998 82.254 72.1418 82.7177 72.2361 83.1921H72.8161C72.7881 82.1161 72.1481 80.4441 72.3401 80.6961C72.9112 81.463 73.3307 82.3319 73.5761 83.2561C74.3161 83.3401 74.5321 83.4681 74.5361 83.2761C74.5361 82.9321 73.9001 79.9641 71.3961 77.9441C68.6761 75.7441 63.5681 75.5441 60.9961 79.4281C60.9961 79.4281 58.7601 81.1401 58.5961 83.6401C58.4321 86.1401 59.9721 89.4641 61.1441 89.3361Z" fill="#263238"/>
<path d="M61.9922 90.1761C61.9922 90.1761 59.9002 87.7201 58.7922 88.4881C57.6842 89.2561 59.4042 92.9401 60.8562 93.3281C61.0388 93.3905 61.2322 93.4154 61.4246 93.4012C61.6171 93.3869 61.8047 93.334 61.9762 93.2454C62.1477 93.1569 62.2995 93.0346 62.4226 92.8859C62.5456 92.7372 62.6373 92.5651 62.6922 92.3801L61.9922 90.1761Z" fill="#DD6A57"/>
<path d="M59.3003 89.5322V89.5682C60.3203 89.8762 60.9243 90.7362 61.3763 91.6482C61.3089 91.5562 61.2226 91.4796 61.1232 91.4237C61.0238 91.3677 60.9135 91.3337 60.7999 91.3238C60.6863 91.314 60.5718 91.3286 60.4642 91.3666C60.3567 91.4046 60.2585 91.4652 60.1763 91.5442C60.1523 91.5442 60.1763 91.6002 60.2083 91.5922C60.3757 91.5214 60.5609 91.5041 60.7386 91.5427C60.9162 91.5814 61.0775 91.6742 61.2003 91.8082C61.4071 92.0318 61.587 92.2788 61.7363 92.5442C61.7923 92.6282 61.9443 92.5442 61.9043 92.4682V92.4442C61.7963 91.2002 60.6523 89.5282 59.3003 89.5322Z" fill="#263238"/>
<path d="M103.056 63.9401C102.808 66.3307 101.901 68.6054 100.435 70.5099C98.9689 72.4144 97.0023 73.8738 94.7546 74.725C92.507 75.5761 90.067 75.7855 87.7072 75.3298C85.3475 74.874 83.1609 73.771 81.3919 72.1441L74.8999 73.0961L78.1439 67.4961C77.3329 65.5211 77.0277 63.3749 77.2559 61.2521C77.6134 57.8314 79.3152 54.6927 81.9868 52.5267C84.6585 50.3606 88.0811 49.3446 91.5019 49.7021C94.9227 50.0596 98.0613 51.7614 100.227 54.433C102.393 57.1047 103.409 60.5274 103.052 63.9481L103.056 63.9401Z" fill="white"/>
<path d="M103.056 63.9399C102.804 66.3305 101.899 68.6057 100.44 70.5159C99.7241 71.4772 98.8663 72.3242 97.896 73.0279C95.4841 74.8648 92.4999 75.7887 89.472 75.6359C88.8707 75.6192 88.2716 75.5564 87.68 75.4479C85.294 75.0064 83.0779 73.9094 81.28 72.2799L81.432 72.3279L74.952 73.3239L74.48 73.3959L74.72 72.9959L77.948 67.3959V67.6199C77.1861 65.7607 76.8621 63.7511 77.0008 61.7467C77.1395 59.7422 77.7373 57.7965 78.748 56.0599C79.758 54.3309 81.146 52.8527 82.808 51.7359C84.4686 50.6368 86.3564 49.9278 88.3299 49.6618C90.3035 49.3957 92.3116 49.5797 94.204 50.1999C96.0799 50.8365 97.7897 51.8848 99.208 53.2679C100.612 54.642 101.687 56.3156 102.353 58.1635C103.02 60.0115 103.26 61.9861 103.056 63.9399ZM103.056 63.9399C103.263 61.9872 103.019 60.0131 102.343 58.1696C101.667 56.3261 100.576 54.6625 99.1557 53.3068C97.7352 51.9512 96.0224 50.9398 94.1493 50.3505C92.2762 49.7612 90.2928 49.6098 88.352 49.9079C86.4283 50.1944 84.596 50.9182 82.996 52.0239C81.4111 53.1365 80.0871 54.5806 79.116 56.2559C78.159 57.9372 77.5955 59.8135 77.468 61.7439C77.3481 63.671 77.6597 65.6005 78.38 67.3919L78.428 67.5079L78.368 67.6119L75.1 73.2119L74.868 72.8679L81.364 71.9599H81.452L81.516 72.0199C83.2478 73.6426 85.3975 74.7507 87.724 75.2199C88.3041 75.3378 88.8926 75.41 89.484 75.4359C90.0753 75.4759 90.6687 75.4759 91.26 75.4359C92.4446 75.3441 93.6106 75.0869 94.724 74.6719C95.8437 74.2672 96.8977 73.6998 97.852 72.9879C98.3304 72.6342 98.7872 72.2522 99.22 71.8439C99.6427 71.424 100.037 70.9763 100.4 70.5039C101.874 68.603 102.793 66.3311 103.056 63.9399Z" fill="#263238"/>
<path d="M88.876 59.86C89.5747 60.594 89.9644 61.5686 89.9644 62.582C89.9644 63.5954 89.5747 64.57 88.876 65.304C88.55 65.663 88.1531 65.9507 87.7105 66.149C87.2679 66.3472 86.789 66.4518 86.304 66.456C85.8099 66.4538 85.3215 66.3504 84.8689 66.1523C84.4162 65.9542 84.0089 65.6655 83.672 65.304C82.9849 64.5641 82.603 63.5917 82.603 62.582C82.603 61.5723 82.9849 60.5999 83.672 59.86C84.0082 59.4976 84.4153 59.2083 84.8681 59.0101C85.321 58.8119 85.8097 58.709 86.304 58.708C86.7893 58.7103 87.2688 58.814 87.7117 59.0123C88.1546 59.2107 88.5512 59.4994 88.876 59.86ZM88.736 62.584C88.7378 61.8863 88.4765 61.2135 88.004 60.7C87.7869 60.4592 87.5216 60.2666 87.2253 60.1348C86.929 60.0031 86.6083 59.935 86.284 59.935C85.9598 59.935 85.6391 60.0031 85.3428 60.1348C85.0465 60.2666 84.7812 60.4592 84.564 60.7C84.0885 61.2116 83.8266 61.8856 83.832 62.584C83.8252 63.2791 84.0875 63.9499 84.564 64.456C84.7798 64.6991 85.0447 64.8937 85.3412 65.0269C85.6376 65.1602 85.959 65.229 86.284 65.229C86.6091 65.229 86.9304 65.1602 87.2269 65.0269C87.5234 64.8937 87.7882 64.6991 88.004 64.456C88.4774 63.9479 88.7392 63.2784 88.736 62.584Z" fill="#00DDB5"/>
<path d="M91.7639 65.8637V59.5717C91.7639 59.4126 91.8271 59.2599 91.9396 59.1474C92.0521 59.0349 92.2047 58.9717 92.3639 58.9717C92.523 58.9717 92.6756 59.0349 92.7881 59.1474C92.9006 59.2599 92.9639 59.4126 92.9639 59.5717V62.6557L96.4479 59.1597C96.5026 59.1038 96.568 59.0594 96.6401 59.0291C96.7122 58.9988 96.7896 58.9832 96.8679 58.9832C96.9461 58.9832 97.0235 58.9988 97.0956 59.0291C97.1678 59.0594 97.2331 59.1038 97.2879 59.1597C97.3959 59.2728 97.4562 59.4232 97.4562 59.5797C97.4562 59.7361 97.3959 59.8866 97.2879 59.9997L94.8999 62.3557L97.2999 65.4877C97.3503 65.5469 97.3883 65.6156 97.4115 65.6899C97.4346 65.7641 97.4425 65.8423 97.4347 65.9196C97.4268 65.997 97.4034 66.072 97.3658 66.14C97.3282 66.2081 97.2772 66.2679 97.2159 66.3157C97.1127 66.4082 96.9784 66.4582 96.8399 66.4557C96.7546 66.454 96.6708 66.4338 96.5941 66.3965C96.5174 66.3593 96.4498 66.3057 96.3959 66.2397L94.0759 63.1957L92.9559 64.3357V65.8637C92.9559 66.0228 92.8926 66.1754 92.7801 66.2879C92.6676 66.4005 92.515 66.4637 92.3559 66.4637C92.1967 66.4637 92.0441 66.4005 91.9316 66.2879C91.8191 66.1754 91.7559 66.0228 91.7559 65.8637H91.7639Z" fill="#00DDB5"/>
</svg>
